<svg xmlns="http://www.w3.org/2000/svg" width="1145" height="611.424" viewBox="0 0 1145 611.424">
  <g id="Grupo_84011" data-name="Grupo 84011" transform="translate(-228 -449.576)">
    <path id="Trazado_117980" data-name="Trazado 117980" d="M-89.985-6.035h-5.391v3.4h6.367V0H-98.8V-14.219h9.814v2.646h-6.387v3h5.391ZM-75.737,0h-3.408l-5.039-8.848V0h-3.428V-14.219h3.428l5.029,8.848v-8.848h3.418Zm13.809-1.758A5.511,5.511,0,0,1-64.243-.342,9.982,9.982,0,0,1-67.583.2a5.955,5.955,0,0,1-4.463-1.709A6.918,6.918,0,0,1-73.833-6.27l-.01-1.23a8.485,8.485,0,0,1,.742-3.667,5.511,5.511,0,0,1,2.124-2.412,6.008,6.008,0,0,1,3.2-.845,6.3,6.3,0,0,1,4.126,1.216A5.152,5.152,0,0,1-61.938-9.58h-3.3a2.7,2.7,0,0,0-.762-1.7,2.458,2.458,0,0,0-1.66-.508,2.237,2.237,0,0,0-1.992,1.094,5.84,5.84,0,0,0-.713,3.125v.859a5.717,5.717,0,0,0,.728,3.2,2.573,2.573,0,0,0,2.29,1.069,2.88,2.88,0,0,0,1.992-.6V-5.244h-2.383V-7.6h5.811Zm5.42-.879h5.967V0h-9.395V-14.219h3.428ZM-45.444,0h-3.418V-14.219h3.418Zm9.717-3.779a1.408,1.408,0,0,0-.532-1.172,6.615,6.615,0,0,0-1.87-.869,17.942,17.942,0,0,1-2.187-.869q-2.764-1.357-2.764-3.73a3.345,3.345,0,0,1,.688-2.085,4.453,4.453,0,0,1,1.948-1.406,7.582,7.582,0,0,1,2.832-.5,6.632,6.632,0,0,1,2.749.547,4.352,4.352,0,0,1,1.89,1.558A4.068,4.068,0,0,1-32.3-10h-3.418a1.719,1.719,0,0,0-.532-1.348,2.075,2.075,0,0,0-1.44-.479,2.339,2.339,0,0,0-1.45.405,1.243,1.243,0,0,0-.532,1.03,1.252,1.252,0,0,0,.586.991,7.389,7.389,0,0,0,2.061.918A12.623,12.623,0,0,1-34.6-7.461,4.07,4.07,0,0,1-32.3-3.8a3.472,3.472,0,0,1-1.406,2.93A6.255,6.255,0,0,1-37.563.2a7.653,7.653,0,0,1-3.13-.62,4.719,4.719,0,0,1-2.109-1.7,4.428,4.428,0,0,1-.708-2.485h3.438a2.181,2.181,0,0,0,.591,1.685,2.793,2.793,0,0,0,1.919.542,2.206,2.206,0,0,0,1.343-.366A1.209,1.209,0,0,0-35.728-3.779ZM-18.657,0h-3.408V-5.937h-5.049V0h-3.428V-14.219h3.428v5.645h5.049v-5.645h3.408Zm7.148,0V-14.219h4.58a6.737,6.737,0,0,1,3.389.854,6.006,6.006,0,0,1,2.349,2.412A7.283,7.283,0,0,1-.337-7.461v.654a7.325,7.325,0,0,1-.825,3.5A6.032,6.032,0,0,1-3.486-.884,6.589,6.589,0,0,1-6.831,0Zm3.428-11.572v8.936H-6.89a2.666,2.666,0,0,0,2.266-1.05,5.145,5.145,0,0,0,.791-3.12v-.615a5.1,5.1,0,0,0-.791-3.105,2.713,2.713,0,0,0-2.3-1.045ZM13.462-6.816a8.385,8.385,0,0,1-.771,3.682A5.7,5.7,0,0,1,10.5-.669,6.1,6.1,0,0,1,7.261.2,6.191,6.191,0,0,1,4.038-.64,5.692,5.692,0,0,1,1.846-3.027a8.144,8.144,0,0,1-.825-3.564v-.8a8.422,8.422,0,0,1,.767-3.687,5.688,5.688,0,0,1,2.2-2.466,6.147,6.147,0,0,1,3.257-.869,6.087,6.087,0,0,1,3.223.859,5.79,5.79,0,0,1,2.2,2.446,8.18,8.18,0,0,1,.8,3.638Zm-3.486-.6a5.979,5.979,0,0,0-.708-3.218,2.271,2.271,0,0,0-2.026-1.1q-2.578,0-2.725,3.867l-.01,1.045A6.149,6.149,0,0,0,5.2-3.6,2.268,2.268,0,0,0,7.261-2.48a2.24,2.24,0,0,0,2-1.1,5.982,5.982,0,0,0,.713-3.174ZM24.048-6.035H18.657v3.4h6.367V0H15.229V-14.219h9.814v2.646H18.657v3h5.391Zm9.707,2.256a1.408,1.408,0,0,0-.532-1.172,6.615,6.615,0,0,0-1.87-.869,17.941,17.941,0,0,1-2.187-.869Q26.4-8.047,26.4-10.42A3.345,3.345,0,0,1,27.09-12.5a4.453,4.453,0,0,1,1.948-1.406,7.582,7.582,0,0,1,2.832-.5,6.632,6.632,0,0,1,2.749.547,4.352,4.352,0,0,1,1.89,1.558A4.068,4.068,0,0,1,37.183-10H33.765a1.719,1.719,0,0,0-.532-1.348,2.075,2.075,0,0,0-1.44-.479,2.339,2.339,0,0,0-1.45.405,1.243,1.243,0,0,0-.532,1.03A1.252,1.252,0,0,0,30.4-9.4a7.389,7.389,0,0,0,2.061.918,12.623,12.623,0,0,1,2.422,1.021,4.07,4.07,0,0,1,2.3,3.662,3.472,3.472,0,0,1-1.406,2.93A6.255,6.255,0,0,1,31.919.2a7.653,7.653,0,0,1-3.13-.62,4.719,4.719,0,0,1-2.109-1.7,4.427,4.427,0,0,1-.708-2.485h3.438A2.181,2.181,0,0,0,30-2.925a2.793,2.793,0,0,0,1.919.542,2.206,2.206,0,0,0,1.343-.366A1.209,1.209,0,0,0,33.755-3.779ZM54.937-5.3l1.631-8.916h3.4L56.948,0H53.394l-1.9-8.105L49.624,0H46.079L43.052-14.219H46.46L48.091-5.3l1.953-8.916h2.91ZM73.345-6.816a8.385,8.385,0,0,1-.771,3.682A5.7,5.7,0,0,1,70.381-.669,6.1,6.1,0,0,1,67.144.2,6.191,6.191,0,0,1,63.921-.64a5.692,5.692,0,0,1-2.192-2.388A8.144,8.144,0,0,1,60.9-6.592v-.8a8.422,8.422,0,0,1,.767-3.687,5.688,5.688,0,0,1,2.2-2.466,6.147,6.147,0,0,1,3.257-.869,6.087,6.087,0,0,1,3.223.859,5.79,5.79,0,0,1,2.2,2.446,8.18,8.18,0,0,1,.8,3.638Zm-3.486-.6a5.979,5.979,0,0,0-.708-3.218,2.271,2.271,0,0,0-2.026-1.1q-2.578,0-2.725,3.867l-.01,1.045A6.149,6.149,0,0,0,65.083-3.6,2.268,2.268,0,0,0,67.144-2.48a2.24,2.24,0,0,0,2-1.1,5.982,5.982,0,0,0,.713-3.174ZM80.4-5.029H78.54V0H75.112V-14.219h5.6A6.246,6.246,0,0,1,84.663-13.1a3.8,3.8,0,0,1,1.426,3.17,4.616,4.616,0,0,1-.6,2.458,4.263,4.263,0,0,1-1.88,1.58L86.577-.147V0H82.905ZM78.54-7.666h2.168a1.946,1.946,0,0,0,1.47-.514,1.987,1.987,0,0,0,.493-1.434,2.01,2.01,0,0,0-.5-1.444,1.928,1.928,0,0,0-1.465-.524H78.54ZM92.993-5.293,91.587-3.75V0H88.159V-14.219h3.428v6.27l1.191-1.807,3.066-4.463h4.238l-4.8,6.289,4.8,7.93H96.021Z" transform="translate(798 464)" fill="#12263f"/>
    <path id="Trazado_117981" data-name="Trazado 117981" d="M10,0H180a10,10,0,0,1,10,10V58a10,10,0,0,1-10,10H10A10,10,0,0,1,0,58V10A10,10,0,0,1,10,0Z" transform="translate(388 861)" fill="#6b8dff"/>
    <path id="Trazado_117982" data-name="Trazado 117982" d="M10,0H180a10,10,0,0,1,10,10V58a10,10,0,0,1-10,10H10A10,10,0,0,1,0,58V10A10,10,0,0,1,10,0Z" transform="translate(1018 861)" fill="#6b8dff"/>
    <path id="Trazado_117983" data-name="Trazado 117983" d="M10,0H180a10,10,0,0,1,10,10V61a10,10,0,0,1-10,10H10A10,10,0,0,1,0,61V10A10,10,0,0,1,10,0Z" transform="translate(513 681)" fill="#6b8dff"/>
    <path id="Trazado_117984" data-name="Trazado 117984" d="M23,0H167a23,23,0,0,1,0,46H23A23,23,0,0,1,23,0Z" transform="translate(358 562)" fill="#c4d1ff"/>
    <path id="Trazado_117985" data-name="Trazado 117985" d="M23,0H167a23,23,0,0,1,0,46H23A23,23,0,0,1,23,0Z" transform="translate(988 562)" fill="#c4d1ff"/>
    <path id="Trazado_117986" data-name="Trazado 117986" d="M23,0H167a23,23,0,0,1,0,46H23A23,23,0,0,1,23,0Z" transform="translate(1173 678)" fill="#c4d1ff"/>
    <path id="Trazado_117987" data-name="Trazado 117987" d="M23,0H167a23,23,0,0,1,0,46H23A23,23,0,0,1,23,0Z" transform="translate(228 693)" fill="#c4d1ff"/>
    <path id="Trazado_117988" data-name="Trazado 117988" d="M23,0H167a23,23,0,0,1,0,46H23A23,23,0,0,1,23,0Z" transform="translate(228 1015)" fill="#c4d1ff"/>
    <path id="Trazado_117989" data-name="Trazado 117989" d="M23,0H167a23,23,0,0,1,0,46H23A23,23,0,0,1,23,0Z" transform="translate(493 1015)" fill="#c4d1ff"/>
    <path id="Trazado_117990" data-name="Trazado 117990" d="M29.5,0h167a29.5,29.5,0,0,1,0,59H29.5a29.5,29.5,0,0,1,0-59Z" transform="translate(852 1002)" fill="#c4d1ff"/>
    <path id="Trazado_117991" data-name="Trazado 117991" d="M29.5,0h171a29.5,29.5,0,0,1,0,59H29.5a29.5,29.5,0,0,1,0-59Z" transform="translate(1143 1002)" fill="#c4d1ff"/>
    <path id="Trazado_117992" data-name="Trazado 117992" d="M10,0H180a10,10,0,0,1,10,10V61a10,10,0,0,1-10,10H10A10,10,0,0,1,0,61V10A10,10,0,0,1,10,0Z" transform="translate(913 681)" fill="#6b8dff"/>
    <path id="Trazado_117993" data-name="Trazado 117993" d="M-38.892-4.824V0h-3.428V-14.219h5.674a6.608,6.608,0,0,1,2.886.6,4.526,4.526,0,0,1,1.943,1.709,4.667,4.667,0,0,1,.688,2.515,4.114,4.114,0,0,1-1.489,3.325A6.179,6.179,0,0,1-36.7-4.824Zm0-2.646h2.246a2.118,2.118,0,0,0,1.519-.5A1.85,1.85,0,0,0-34.6-9.375a2.287,2.287,0,0,0-.537-1.592,1.9,1.9,0,0,0-1.465-.605h-2.285Zm15.83-.117-1.084-.078a1.947,1.947,0,0,0-1.992.977V0h-3.291V-10.566h3.086l.107,1.357a2.548,2.548,0,0,1,2.314-1.553,3.209,3.209,0,0,1,.918.117Zm.42,2.207A6.236,6.236,0,0,1-22.026-8.2a4.4,4.4,0,0,1,1.768-1.9,5.323,5.323,0,0,1,2.705-.664,4.858,4.858,0,0,1,3.74,1.47,5.64,5.64,0,0,1,1.367,4v.117a5.472,5.472,0,0,1-1.372,3.921A4.871,4.871,0,0,1-17.534.2a4.927,4.927,0,0,1-3.623-1.353,5.29,5.29,0,0,1-1.475-3.667Zm3.291.205a3.932,3.932,0,0,0,.459,2.148,1.529,1.529,0,0,0,1.357.684q1.758,0,1.8-2.705v-.332q0-2.842-1.816-2.842-1.65,0-1.787,2.451Zm11.377-5.391.107,1.24a3.583,3.583,0,0,1,3.018-1.436,3.015,3.015,0,0,1,2.466.986,4.7,4.7,0,0,1,.845,2.969V0h-3.3V-6.67a1.783,1.783,0,0,0-.322-1.177,1.491,1.491,0,0,0-1.172-.376,1.569,1.569,0,0,0-1.436.762V0H-11.06V-10.566ZM-.132-5.381A6.236,6.236,0,0,1,.483-8.2a4.4,4.4,0,0,1,1.768-1.9,5.323,5.323,0,0,1,2.705-.664A4.858,4.858,0,0,1,8.7-9.292a5.64,5.64,0,0,1,1.367,4v.117A5.472,5.472,0,0,1,8.691-1.255,4.871,4.871,0,0,1,4.976.2,4.927,4.927,0,0,1,1.353-1.157,5.29,5.29,0,0,1-.122-4.824Zm3.291.205a3.932,3.932,0,0,0,.459,2.148,1.529,1.529,0,0,0,1.357.684q1.758,0,1.8-2.705v-.332q0-2.842-1.816-2.842-1.65,0-1.787,2.451ZM17.808-1.143A3.393,3.393,0,0,1,14.985.2,3.328,3.328,0,0,1,12.354-.815a4.251,4.251,0,0,1-.894-2.905v-6.846h3.291V-3.7a1.183,1.183,0,0,0,1.318,1.357,1.72,1.72,0,0,0,1.611-.811v-7.412h3.311V0H17.905Zm8.008-9.424.107,1.24a3.583,3.583,0,0,1,3.018-1.436,3.015,3.015,0,0,1,2.466.986,4.7,4.7,0,0,1,.845,2.969V0h-3.3V-6.67a1.783,1.783,0,0,0-.322-1.177,1.491,1.491,0,0,0-1.172-.376,1.569,1.569,0,0,0-1.436.762V0H22.729V-10.566ZM39.6-2.969a.76.76,0,0,0-.439-.674A6.685,6.685,0,0,0,37.5-4.17a7.615,7.615,0,0,1-2.031-.718,3.4,3.4,0,0,1-1.221-1.079,2.577,2.577,0,0,1-.42-1.455,2.92,2.92,0,0,1,1.2-2.4,4.948,4.948,0,0,1,3.145-.942,5.482,5.482,0,0,1,3.359.947,2.962,2.962,0,0,1,1.27,2.49H39.5q0-1.27-1.338-1.27a1.326,1.326,0,0,0-.869.288.892.892,0,0,0-.352.718.819.819,0,0,0,.43.713,4.06,4.06,0,0,0,1.372.449,11.857,11.857,0,0,1,1.655.42,3.007,3.007,0,0,1,2.383,2.939A2.767,2.767,0,0,1,41.494-.713,5.632,5.632,0,0,1,38.169.2a5.747,5.747,0,0,1-2.422-.488,4.05,4.05,0,0,1-1.66-1.328,3.007,3.007,0,0,1-.6-1.768h3.076a1.272,1.272,0,0,0,.488,1.069,2.009,2.009,0,0,0,1.2.337,1.58,1.58,0,0,0,1.011-.273A.875.875,0,0,0,39.6-2.969Z" transform="translate(610 724)" fill="#12263f"/>
    <path id="Trazado_117994" data-name="Trazado 117994" d="M-35.674-4.824V0H-39.1V-14.219h5.674a6.608,6.608,0,0,1,2.886.6A4.526,4.526,0,0,1-28.6-11.909a4.667,4.667,0,0,1,.688,2.515A4.114,4.114,0,0,1-29.4-6.069a6.179,6.179,0,0,1-4.087,1.245Zm0-2.646h2.246a2.118,2.118,0,0,0,1.519-.5,1.85,1.85,0,0,0,.522-1.406,2.287,2.287,0,0,0-.537-1.592,1.9,1.9,0,0,0-1.465-.605h-2.285ZM-21.123.2a5.432,5.432,0,0,1-3.936-1.45,5.008,5.008,0,0,1-1.5-3.774V-5.3a6.489,6.489,0,0,1,.6-2.861,4.395,4.395,0,0,1,1.753-1.919,5.292,5.292,0,0,1,2.734-.679A4.574,4.574,0,0,1-17.959-9.38,5.43,5.43,0,0,1-16.67-5.527v1.279h-6.543a2.372,2.372,0,0,0,.771,1.4,2.3,2.3,0,0,0,1.543.508,2.958,2.958,0,0,0,2.441-1.094l1.5,1.777A4.2,4.2,0,0,1-18.7-.308,5.891,5.891,0,0,1-21.123.2Zm-.371-8.418q-1.445,0-1.719,1.914h3.32v-.254a1.63,1.63,0,0,0-.4-1.226A1.593,1.593,0,0,0-21.494-8.223Zm12.539.635-1.084-.078a1.947,1.947,0,0,0-1.992.977V0h-3.291V-10.566h3.086l.107,1.357a2.548,2.548,0,0,1,2.314-1.553,3.209,3.209,0,0,1,.918.117Zm6.719,4.619a.76.76,0,0,0-.439-.674,6.685,6.685,0,0,0-1.67-.527,7.615,7.615,0,0,1-2.031-.718A3.4,3.4,0,0,1-7.6-5.967a2.577,2.577,0,0,1-.42-1.455,2.92,2.92,0,0,1,1.2-2.4,4.948,4.948,0,0,1,3.145-.942,5.482,5.482,0,0,1,3.359.947,2.962,2.962,0,0,1,1.27,2.49h-3.3q0-1.27-1.338-1.27a1.326,1.326,0,0,0-.869.288.892.892,0,0,0-.352.718.819.819,0,0,0,.43.713A4.06,4.06,0,0,0-3.1-6.426a11.857,11.857,0,0,1,1.655.42A3.007,3.007,0,0,1,.938-3.066,2.767,2.767,0,0,1-.347-.713,5.632,5.632,0,0,1-3.672.2,5.747,5.747,0,0,1-6.094-.293a4.05,4.05,0,0,1-1.66-1.328,3.007,3.007,0,0,1-.6-1.768h3.076a1.272,1.272,0,0,0,.488,1.069,2.009,2.009,0,0,0,1.2.337,1.58,1.58,0,0,0,1.011-.273A.875.875,0,0,0-2.236-2.969Zm4.3-2.412A6.236,6.236,0,0,1,2.676-8.2a4.4,4.4,0,0,1,1.768-1.9,5.323,5.323,0,0,1,2.705-.664,4.858,4.858,0,0,1,3.74,1.47,5.64,5.64,0,0,1,1.367,4v.117a5.472,5.472,0,0,1-1.372,3.921A4.871,4.871,0,0,1,7.168.2,4.927,4.927,0,0,1,3.545-1.157,5.29,5.29,0,0,1,2.07-4.824Zm3.291.205a3.932,3.932,0,0,0,.459,2.148,1.529,1.529,0,0,0,1.357.684q1.758,0,1.8-2.705v-.332q0-2.842-1.816-2.842-1.65,0-1.787,2.451Zm11.377-5.391.107,1.24a3.583,3.583,0,0,1,3.018-1.436,3.015,3.015,0,0,1,2.466.986,4.7,4.7,0,0,1,.845,2.969V0h-3.3V-6.67a1.783,1.783,0,0,0-.322-1.177,1.491,1.491,0,0,0-1.172-.376,1.569,1.569,0,0,0-1.436.762V0H13.643V-10.566ZM30.938,0a3.716,3.716,0,0,1-.312-.947A3.06,3.06,0,0,1,28.086.2a3.749,3.749,0,0,1-2.539-.9A2.875,2.875,0,0,1,24.5-2.979a2.955,2.955,0,0,1,1.27-2.6,6.468,6.468,0,0,1,3.691-.879h1.016v-.559q0-1.462-1.26-1.462a1.03,1.03,0,0,0-1.172,1.158H24.756a2.95,2.95,0,0,1,1.3-2.487,5.479,5.479,0,0,1,3.325-.956,4.8,4.8,0,0,1,3.193.986,3.429,3.429,0,0,1,1.2,2.705v4.678a4.79,4.79,0,0,0,.449,2.227V0ZM28.877-2.148A1.836,1.836,0,0,0,29.9-2.412a1.653,1.653,0,0,0,.581-.6V-4.7h-.957Q27.8-4.7,27.8-3.154a.942.942,0,0,0,.3.728A1.1,1.1,0,0,0,28.877-2.148ZM39.072,0h-3.3V-15h3.3ZM-48.379,27h-3.3V16.434h3.3Zm-3.5-13.291a1.469,1.469,0,0,1,.508-1.152,1.916,1.916,0,0,1,1.318-.449,1.916,1.916,0,0,1,1.318.449,1.469,1.469,0,0,1,.508,1.152,1.469,1.469,0,0,1-.508,1.152,1.916,1.916,0,0,1-1.318.449,1.916,1.916,0,0,1-1.318-.449A1.469,1.469,0,0,1-51.875,13.709Zm8.545,2.725.107,1.24a3.583,3.583,0,0,1,3.018-1.436,3.015,3.015,0,0,1,2.466.986,4.7,4.7,0,0,1,.845,2.969V27h-3.3V20.33a1.783,1.783,0,0,0-.322-1.177,1.491,1.491,0,0,0-1.172-.376,1.569,1.569,0,0,0-1.436.762V27h-3.291V16.434ZM-34.346,27V18.719h-1.533V16.434h1.533v-.84a3.651,3.651,0,0,1,1.064-2.8,4.206,4.206,0,0,1,2.988-1A6.544,6.544,0,0,1-28.75,12l.01,2.422a3.007,3.007,0,0,0-.811-.088q-1.494,0-1.494,1.289v.811h2.061v2.285h-2.061V27Zm6.1-5.381a6.236,6.236,0,0,1,.615-2.817,4.4,4.4,0,0,1,1.768-1.9,5.323,5.323,0,0,1,2.705-.664,4.858,4.858,0,0,1,3.74,1.47,5.64,5.64,0,0,1,1.367,4v.117a5.472,5.472,0,0,1-1.372,3.921,4.871,4.871,0,0,1-3.716,1.45,4.927,4.927,0,0,1-3.623-1.353,5.29,5.29,0,0,1-1.475-3.667Zm3.291.205a3.932,3.932,0,0,0,.459,2.148,1.529,1.529,0,0,0,1.357.684q1.758,0,1.8-2.705v-.332q0-2.842-1.816-2.842-1.65,0-1.787,2.451Zm14.746-2.412-1.084-.078a1.947,1.947,0,0,0-1.992.977V27h-3.291V16.434h3.086l.107,1.357a2.548,2.548,0,0,1,2.314-1.553,3.209,3.209,0,0,1,.918.117Zm4.3-2.979.107,1.24a3.633,3.633,0,0,1,3.018-1.436A2.675,2.675,0,0,1-.078,17.83a3.517,3.517,0,0,1,3.105-1.592q3.213,0,3.3,3.887V27h-3.3V20.33a2.014,2.014,0,0,0-.273-1.182,1.164,1.164,0,0,0-1-.371A1.559,1.559,0,0,0,.3,19.646l.01.137V27h-3.3V20.35a2.117,2.117,0,0,0-.264-1.2,1.161,1.161,0,0,0-1.006-.371,1.578,1.578,0,0,0-1.445.869V27H-8.994V16.434ZM14.16,27a3.716,3.716,0,0,1-.312-.947A3.06,3.06,0,0,1,11.309,27.2a3.749,3.749,0,0,1-2.539-.9,2.875,2.875,0,0,1-1.045-2.271,2.955,2.955,0,0,1,1.27-2.6,6.468,6.468,0,0,1,3.691-.879H13.7v-.559q0-1.462-1.26-1.462a1.03,1.03,0,0,0-1.172,1.158H7.979a2.95,2.95,0,0,1,1.3-2.487,5.479,5.479,0,0,1,3.325-.956,4.8,4.8,0,0,1,3.193.986A3.429,3.429,0,0,1,17,19.93v4.678a4.79,4.79,0,0,0,.449,2.227V27ZM12.1,24.852a1.836,1.836,0,0,0,1.021-.264,1.653,1.653,0,0,0,.581-.6V22.3h-.957q-1.719,0-1.719,1.543a.942.942,0,0,0,.3.728A1.1,1.1,0,0,0,12.1,24.852ZM22.656,13.807v2.627h1.738v2.285H22.656v4.834a1.234,1.234,0,0,0,.215.83,1.152,1.152,0,0,0,.85.234,4.828,4.828,0,0,0,.82-.059v2.354a6.074,6.074,0,0,1-1.855.283,3.448,3.448,0,0,1-2.51-.8,3.282,3.282,0,0,1-.811-2.432V18.719H18.018V16.434h1.348V13.807ZM29.16,27h-3.3V16.434h3.3Zm-3.5-13.291a1.469,1.469,0,0,1,.508-1.152,2.159,2.159,0,0,1,2.637,0,1.561,1.561,0,0,1,0,2.3,2.159,2.159,0,0,1-2.637,0A1.469,1.469,0,0,1,25.664,13.709Zm5.107,7.91a6.236,6.236,0,0,1,.615-2.817,4.4,4.4,0,0,1,1.768-1.9,5.323,5.323,0,0,1,2.705-.664,4.858,4.858,0,0,1,3.74,1.47,5.64,5.64,0,0,1,1.367,4v.117a5.472,5.472,0,0,1-1.372,3.921,4.871,4.871,0,0,1-3.716,1.45,4.927,4.927,0,0,1-3.623-1.353,5.29,5.29,0,0,1-1.475-3.667Zm3.291.205a3.932,3.932,0,0,0,.459,2.148,1.529,1.529,0,0,0,1.357.684q1.758,0,1.8-2.705v-.332q0-2.842-1.816-2.842-1.65,0-1.787,2.451Zm11.377-5.391.107,1.24a3.583,3.583,0,0,1,3.018-1.436,3.015,3.015,0,0,1,2.466.986,4.7,4.7,0,0,1,.845,2.969V27h-3.3V20.33a1.783,1.783,0,0,0-.322-1.177,1.491,1.491,0,0,0-1.172-.376,1.569,1.569,0,0,0-1.436.762V27H42.354V16.434Z" transform="translate(1008 710)" fill="#12263f"/>
    <path id="Trazado_117995" data-name="Trazado 117995" d="M-19.873-5.664H-25.4V0h-3.428V-14.219h9.512v2.646H-25.4V-8.3h5.527ZM-12.422,0a3.716,3.716,0,0,1-.312-.947A3.06,3.06,0,0,1-15.273.2a3.749,3.749,0,0,1-2.539-.9,2.875,2.875,0,0,1-1.045-2.271,2.955,2.955,0,0,1,1.27-2.6A6.468,6.468,0,0,1-13.9-6.455h1.016v-.559q0-1.462-1.26-1.462a1.03,1.03,0,0,0-1.172,1.158H-18.6a2.95,2.95,0,0,1,1.3-2.487,5.479,5.479,0,0,1,3.325-.956,4.8,4.8,0,0,1,3.193.986A3.429,3.429,0,0,1-9.58-7.07v4.678A4.79,4.79,0,0,0-9.131-.166V0Zm-2.061-2.148a1.836,1.836,0,0,0,1.021-.264,1.653,1.653,0,0,0,.581-.6V-4.7h-.957q-1.719,0-1.719,1.543a.942.942,0,0,0,.3.728A1.1,1.1,0,0,0-14.482-2.148Zm9.834-8.418.107,1.24a3.633,3.633,0,0,1,3.018-1.436A2.675,2.675,0,0,1,1.182-9.17a3.517,3.517,0,0,1,3.105-1.592q3.213,0,3.3,3.887V0h-3.3V-6.67a2.014,2.014,0,0,0-.273-1.182,1.164,1.164,0,0,0-1-.371,1.559,1.559,0,0,0-1.455.869l.01.137V0h-3.3V-6.65a2.117,2.117,0,0,0-.264-1.2A1.161,1.161,0,0,0-3-8.223a1.578,1.578,0,0,0-1.445.869V0H-7.734V-10.566ZM12.939,0h-3.3V-10.566h3.3Zm-3.5-13.291a1.469,1.469,0,0,1,.508-1.152,1.916,1.916,0,0,1,1.318-.449,1.916,1.916,0,0,1,1.318.449,1.469,1.469,0,0,1,.508,1.152,1.469,1.469,0,0,1-.508,1.152,1.916,1.916,0,0,1-1.318.449,1.916,1.916,0,0,1-1.318-.449A1.469,1.469,0,0,1,9.443-13.291ZM18.438,0h-3.3V-15h3.3Zm6.25-4.609,1.758-5.957h3.525L25.664,1.768l-.186.449a3.272,3.272,0,0,1-3.242,2.051,5.158,5.158,0,0,1-1.357-.195V1.729h.43a2.251,2.251,0,0,0,1.06-.2A1.216,1.216,0,0,0,22.91.81l.264-.7L19.5-10.566h3.516Z" transform="translate(1113 902)" fill="#12263f"/>
    <path id="Trazado_117996" data-name="Trazado 117996" d="M-60.908-3.779a1.408,1.408,0,0,0-.532-1.172,6.615,6.615,0,0,0-1.87-.869A17.941,17.941,0,0,1-65.5-6.689q-2.764-1.357-2.764-3.73a3.345,3.345,0,0,1,.688-2.085,4.453,4.453,0,0,1,1.948-1.406,7.582,7.582,0,0,1,2.832-.5,6.632,6.632,0,0,1,2.749.547,4.352,4.352,0,0,1,1.89,1.558A4.068,4.068,0,0,1-57.48-10H-60.9a1.719,1.719,0,0,0-.532-1.348,2.075,2.075,0,0,0-1.44-.479,2.339,2.339,0,0,0-1.45.405,1.243,1.243,0,0,0-.532,1.03,1.252,1.252,0,0,0,.586.991,7.389,7.389,0,0,0,2.061.918,12.623,12.623,0,0,1,2.422,1.021A4.07,4.07,0,0,1-57.48-3.8a3.472,3.472,0,0,1-1.406,2.93A6.255,6.255,0,0,1-62.744.2a7.653,7.653,0,0,1-3.13-.62,4.719,4.719,0,0,1-2.109-1.7,4.427,4.427,0,0,1-.708-2.485h3.438a2.181,2.181,0,0,0,.591,1.685,2.793,2.793,0,0,0,1.919.542A2.206,2.206,0,0,0-61.4-2.749,1.209,1.209,0,0,0-60.908-3.779ZM-52.4,0h-3.3V-10.566h3.3Zm-3.5-13.291a1.469,1.469,0,0,1,.508-1.152,1.916,1.916,0,0,1,1.318-.449,1.916,1.916,0,0,1,1.318.449,1.469,1.469,0,0,1,.508,1.152,1.469,1.469,0,0,1-.508,1.152,1.916,1.916,0,0,1-1.318.449,1.916,1.916,0,0,1-1.318-.449A1.469,1.469,0,0,1-55.9-13.291Zm8.633,2.725.107,1.24a3.633,3.633,0,0,1,3.018-1.436A2.675,2.675,0,0,1-41.436-9.17a3.516,3.516,0,0,1,3.105-1.592q3.213,0,3.3,3.887V0h-3.3V-6.67A2.014,2.014,0,0,0-38.6-7.852a1.164,1.164,0,0,0-1-.371,1.559,1.559,0,0,0-1.455.869l.01.137V0h-3.3V-6.65a2.117,2.117,0,0,0-.264-1.2,1.161,1.161,0,0,0-1.006-.371,1.578,1.578,0,0,0-1.445.869V0h-3.291V-10.566ZM-23.34-5.205a6.372,6.372,0,0,1-1.108,3.931A3.554,3.554,0,0,1-27.441.2,3.046,3.046,0,0,1-29.834-.869V4.063h-3.291V-10.566h3.076l.1.977a3.046,3.046,0,0,1,2.49-1.172,3.582,3.582,0,0,1,3.037,1.44,6.45,6.45,0,0,1,1.084,3.96Zm-3.291-.205q0-2.812-1.641-2.812a1.549,1.549,0,0,0-1.562.84v4.16a1.6,1.6,0,0,0,1.582.879q1.572,0,1.621-2.715ZM-18.418,0h-3.3V-15h3.3Zm7.139.2a5.432,5.432,0,0,1-3.936-1.45,5.008,5.008,0,0,1-1.5-3.774V-5.3a6.489,6.489,0,0,1,.6-2.861,4.395,4.395,0,0,1,1.753-1.919,5.292,5.292,0,0,1,2.734-.679A4.574,4.574,0,0,1-8.115-9.38,5.43,5.43,0,0,1-6.826-5.527v1.279h-6.543a2.372,2.372,0,0,0,.771,1.4,2.3,2.3,0,0,0,1.543.508A2.958,2.958,0,0,0-8.613-3.437l1.5,1.777A4.2,4.2,0,0,1-8.853-.308,5.891,5.891,0,0,1-11.279.2Zm-.371-8.418q-1.445,0-1.719,1.914h3.32v-.254a1.63,1.63,0,0,0-.4-1.226A1.593,1.593,0,0,0-11.65-8.223Zm14.707,3.4V0H-.371V-14.219H5.3a6.608,6.608,0,0,1,2.886.6,4.526,4.526,0,0,1,1.943,1.709,4.667,4.667,0,0,1,.688,2.515A4.114,4.114,0,0,1,9.331-6.069,6.179,6.179,0,0,1,5.244-4.824Zm0-2.646H5.3a2.118,2.118,0,0,0,1.519-.5,1.85,1.85,0,0,0,.522-1.406,2.287,2.287,0,0,0-.537-1.592,1.9,1.9,0,0,0-1.465-.605H3.057Zm15.83-.117L17.8-7.666a1.947,1.947,0,0,0-1.992.977V0H12.52V-10.566h3.086l.107,1.357a2.548,2.548,0,0,1,2.314-1.553,3.209,3.209,0,0,1,.918.117ZM25.186.2a5.432,5.432,0,0,1-3.936-1.45,5.008,5.008,0,0,1-1.5-3.774V-5.3a6.489,6.489,0,0,1,.6-2.861A4.395,4.395,0,0,1,22.1-10.083a5.292,5.292,0,0,1,2.734-.679A4.574,4.574,0,0,1,28.35-9.38a5.43,5.43,0,0,1,1.289,3.853v1.279H23.1a2.372,2.372,0,0,0,.771,1.4,2.3,2.3,0,0,0,1.543.508,2.958,2.958,0,0,0,2.441-1.094l1.5,1.777A4.2,4.2,0,0,1,27.612-.308,5.891,5.891,0,0,1,25.186.2Zm-.371-8.418q-1.445,0-1.719,1.914h3.32v-.254a1.63,1.63,0,0,0-.4-1.226A1.593,1.593,0,0,0,24.814-8.223Zm11.68,5.254a.76.76,0,0,0-.439-.674,6.685,6.685,0,0,0-1.67-.527,7.615,7.615,0,0,1-2.031-.718,3.4,3.4,0,0,1-1.221-1.079,2.577,2.577,0,0,1-.42-1.455,2.92,2.92,0,0,1,1.2-2.4,4.948,4.948,0,0,1,3.145-.942,5.482,5.482,0,0,1,3.359.947,2.962,2.962,0,0,1,1.27,2.49h-3.3q0-1.27-1.338-1.27a1.326,1.326,0,0,0-.869.288.892.892,0,0,0-.352.718.819.819,0,0,0,.43.713,4.06,4.06,0,0,0,1.372.449,11.857,11.857,0,0,1,1.655.42,3.007,3.007,0,0,1,2.383,2.939A2.767,2.767,0,0,1,38.384-.713,5.632,5.632,0,0,1,35.059.2a5.747,5.747,0,0,1-2.422-.488,4.05,4.05,0,0,1-1.66-1.328,3.007,3.007,0,0,1-.6-1.768h3.076a1.272,1.272,0,0,0,.488,1.069,2.009,2.009,0,0,0,1.2.337,1.58,1.58,0,0,0,1.011-.273A.875.875,0,0,0,36.494-2.969ZM46.318.2a5.432,5.432,0,0,1-3.936-1.45,5.008,5.008,0,0,1-1.5-3.774V-5.3a6.489,6.489,0,0,1,.6-2.861,4.395,4.395,0,0,1,1.753-1.919,5.292,5.292,0,0,1,2.734-.679A4.574,4.574,0,0,1,49.482-9.38a5.43,5.43,0,0,1,1.289,3.853v1.279H44.229A2.372,2.372,0,0,0,45-2.852a2.3,2.3,0,0,0,1.543.508,2.958,2.958,0,0,0,2.441-1.094l1.5,1.777A4.2,4.2,0,0,1,48.745-.308,5.891,5.891,0,0,1,46.318.2Zm-.371-8.418q-1.445,0-1.719,1.914h3.32v-.254a1.63,1.63,0,0,0-.4-1.226A1.593,1.593,0,0,0,45.947-8.223Zm9.17-2.344.107,1.24a3.583,3.583,0,0,1,3.018-1.436,3.015,3.015,0,0,1,2.466.986,4.7,4.7,0,0,1,.845,2.969V0h-3.3V-6.67a1.783,1.783,0,0,0-.322-1.177,1.491,1.491,0,0,0-1.172-.376,1.569,1.569,0,0,0-1.436.762V0H52.031V-10.566Zm12.09-2.627v2.627h1.738v2.285H67.207v4.834a1.234,1.234,0,0,0,.215.83,1.152,1.152,0,0,0,.85.234,4.828,4.828,0,0,0,.82-.059V-.088A6.074,6.074,0,0,1,67.236.2a3.448,3.448,0,0,1-2.51-.8,3.282,3.282,0,0,1-.811-2.432V-8.281H62.568v-2.285h1.348v-2.627Z" transform="translate(483 902)" fill="#12263f"/>
    <path id="Trazado_117997" data-name="Trazado 117997" d="M-18.447-8.066h3.33v2.822h-3.33v3.818h-3.076V-5.244h-3.34V-8.066h3.34v-3.711h3.076Zm5.908,11.895-1.66-.781.332-.664a5.416,5.416,0,0,0,.713-2.422V-2.48h2.637l-.01,2.119A5.3,5.3,0,0,1-11.1,1.924,5.806,5.806,0,0,1-12.539,3.828ZM3.105-4.863H-2.764V-7.4H3.105ZM6.826,3.828l-1.66-.781L5.5,2.383A5.416,5.416,0,0,0,6.211-.039V-2.48H8.848L8.838-.361a5.3,5.3,0,0,1-.576,2.285A5.806,5.806,0,0,1,6.826,3.828ZM18.477-4.5A6.356,6.356,0,0,1,18.8-6.753a3.521,3.521,0,0,1,1.045-1.431,6.947,6.947,0,0,0,1.1-1.108,1.809,1.809,0,0,0,.376-1.108q0-1.475-1.27-1.475a1.178,1.178,0,0,0-.947.43,1.827,1.827,0,0,0-.381,1.162h-3.3a3.937,3.937,0,0,1,1.23-3.042,4.906,4.906,0,0,1,3.4-1.089,5.1,5.1,0,0,1,3.374,1.006,3.53,3.53,0,0,1,1.2,2.861A3.333,3.333,0,0,1,24.3-9.072a4.984,4.984,0,0,1-1.035,1.357L22.139-6.67a2.642,2.642,0,0,0-.664.942A3.735,3.735,0,0,0,21.27-4.5Zm-.4,2.969A1.516,1.516,0,0,1,18.6-2.72a1.892,1.892,0,0,1,1.3-.464,1.892,1.892,0,0,1,1.3.464,1.516,1.516,0,0,1,.522,1.187,1.516,1.516,0,0,1-.522,1.187,1.892,1.892,0,0,1-1.3.464,1.892,1.892,0,0,1-1.3-.464A1.516,1.516,0,0,1,18.076-1.533Z" transform="translate(323 1045)" fill="#12263f"/>
    <path id="Trazado_117998" data-name="Trazado 117998" d="M27.217,21H23.8V6.781h3.418Zm5.254-10.566.107,1.24A3.583,3.583,0,0,1,35.6,10.238a3.015,3.015,0,0,1,2.466.986,4.7,4.7,0,0,1,.845,2.969V21h-3.3V14.33a1.783,1.783,0,0,0-.322-1.177,1.491,1.491,0,0,0-1.172-.376,1.569,1.569,0,0,0-1.436.762V21H29.385V10.434Zm11.367,0,.107,1.24a3.633,3.633,0,0,1,3.018-1.436,2.675,2.675,0,0,1,2.705,1.592,3.516,3.516,0,0,1,3.105-1.592q3.213,0,3.3,3.887V21h-3.3V14.33a2.014,2.014,0,0,0-.273-1.182,1.164,1.164,0,0,0-1-.371,1.559,1.559,0,0,0-1.455.869l.01.137V21h-3.3V14.35a2.117,2.117,0,0,0-.264-1.2,1.161,1.161,0,0,0-1.006-.371,1.578,1.578,0,0,0-1.445.869V21H40.752V10.434ZM63.066,21.2a5.432,5.432,0,0,1-3.936-1.45,5.008,5.008,0,0,1-1.5-3.774V15.7a6.489,6.489,0,0,1,.6-2.861,4.395,4.395,0,0,1,1.753-1.919,5.292,5.292,0,0,1,2.734-.679A4.574,4.574,0,0,1,66.23,11.62a5.43,5.43,0,0,1,1.289,3.853v1.279H60.977a2.372,2.372,0,0,0,.771,1.4,2.3,2.3,0,0,0,1.543.508,2.958,2.958,0,0,0,2.441-1.094l1.5,1.777a4.2,4.2,0,0,1-1.743,1.353A5.891,5.891,0,0,1,63.066,21.2ZM62.7,12.777q-1.445,0-1.719,1.914H64.3v-.254a1.63,1.63,0,0,0-.4-1.226A1.593,1.593,0,0,0,62.7,12.777Zm5.732,2.861a6.455,6.455,0,0,1,1.084-3.955,3.568,3.568,0,0,1,3.027-1.445,3.035,3.035,0,0,1,2.383,1.113V6h3.3V21H75.264L75.1,19.867A3.116,3.116,0,0,1,72.52,21.2a3.562,3.562,0,0,1-2.988-1.445A6.659,6.659,0,0,1,68.428,15.639Zm3.291.205q0,2.813,1.641,2.813a1.62,1.62,0,0,0,1.563-.918V13.715a1.576,1.576,0,0,0-1.543-.937q-1.523,0-1.65,2.461ZM83.564,21h-3.3V10.434h3.3Zm-3.5-13.291a1.469,1.469,0,0,1,.508-1.152,2.159,2.159,0,0,1,2.637,0,1.469,1.469,0,0,1,.508,1.152,1.469,1.469,0,0,1-.508,1.152,2.159,2.159,0,0,1-2.637,0A1.469,1.469,0,0,1,80.068,7.709ZM91.543,21a3.716,3.716,0,0,1-.312-.947A3.06,3.06,0,0,1,88.691,21.2a3.749,3.749,0,0,1-2.539-.9,2.875,2.875,0,0,1-1.045-2.271,2.955,2.955,0,0,1,1.27-2.6,6.468,6.468,0,0,1,3.691-.879h1.016v-.559q0-1.462-1.26-1.462a1.03,1.03,0,0,0-1.172,1.158H85.361a2.95,2.95,0,0,1,1.3-2.487,5.479,5.479,0,0,1,3.325-.956,4.8,4.8,0,0,1,3.193.986,3.429,3.429,0,0,1,1.2,2.705v4.678a4.79,4.79,0,0,0,.449,2.227V21Zm-2.061-2.148a1.836,1.836,0,0,0,1.021-.264,1.653,1.653,0,0,0,.581-.6V16.3h-.957q-1.719,0-1.719,1.543a.942.942,0,0,0,.3.728A1.1,1.1,0,0,0,89.482,18.852ZM100.039,7.807v2.627h1.738v2.285h-1.738v4.834a1.234,1.234,0,0,0,.215.83,1.152,1.152,0,0,0,.85.234,4.828,4.828,0,0,0,.82-.059v2.354a6.074,6.074,0,0,1-1.855.283,3.448,3.448,0,0,1-2.51-.8,3.282,3.282,0,0,1-.811-2.432V12.719H95.4V10.434h1.348V7.807Zm7.256,8.584,1.758-5.957h3.525l-4.307,12.334-.186.449a3.272,3.272,0,0,1-3.242,2.051,5.158,5.158,0,0,1-1.357-.195V22.729h.43a2.251,2.251,0,0,0,1.06-.2,1.216,1.216,0,0,0,.542-.718l.264-.7-3.672-10.673h3.516Z" transform="translate(895 1020)" fill="#12263f"/>
    <path id="Trazado_117999" data-name="Trazado 117999" d="M-16.191-6.816a8.385,8.385,0,0,1-.771,3.682A5.7,5.7,0,0,1-19.155-.669,6.1,6.1,0,0,1-22.393.2,6.191,6.191,0,0,1-25.615-.64a5.692,5.692,0,0,1-2.192-2.388,8.144,8.144,0,0,1-.825-3.564v-.8a8.422,8.422,0,0,1,.767-3.687,5.688,5.688,0,0,1,2.2-2.466,6.147,6.147,0,0,1,3.257-.869,6.087,6.087,0,0,1,3.223.859,5.79,5.79,0,0,1,2.2,2.446,8.18,8.18,0,0,1,.8,3.638Zm-3.486-.6a5.979,5.979,0,0,0-.708-3.218,2.271,2.271,0,0,0-2.026-1.1q-2.578,0-2.725,3.867l-.01,1.045A6.149,6.149,0,0,0-24.453-3.6,2.268,2.268,0,0,0-22.393-2.48a2.24,2.24,0,0,0,2-1.1,5.982,5.982,0,0,0,.713-3.174ZM-4.766-5.2A6.44,6.44,0,0,1-5.84-1.2,3.6,3.6,0,0,1-8.867.2a3.122,3.122,0,0,1-2.6-1.279L-11.6,0h-2.949V-15h3.291v5.283a3.013,3.013,0,0,1,2.373-1.045A3.6,3.6,0,0,1-5.84-9.346,6.473,6.473,0,0,1-4.766-5.361Zm-3.3-.21a4.3,4.3,0,0,0-.405-2.169,1.366,1.366,0,0,0-1.245-.648,1.576,1.576,0,0,0-1.543.848v4.192A1.585,1.585,0,0,0-9.7-2.344,1.4,1.4,0,0,0-8.223-3.475,8.121,8.121,0,0,0-8.066-5.405ZM.225-10.566V.361A3.836,3.836,0,0,1-.85,3.252,4.127,4.127,0,0,1-3.818,4.268,7.009,7.009,0,0,1-5.371,4.1V1.611a6.3,6.3,0,0,0,.928.088A1.2,1.2,0,0,0-3.076.342V-10.566ZM-3.32-13.291a1.469,1.469,0,0,1,.508-1.152,1.916,1.916,0,0,1,1.318-.449,1.916,1.916,0,0,1,1.318.449,1.469,1.469,0,0,1,.508,1.152,1.469,1.469,0,0,1-.508,1.152,1.916,1.916,0,0,1-1.318.449,1.916,1.916,0,0,1-1.318-.449A1.469,1.469,0,0,1-3.32-13.291ZM7.2.2a5.432,5.432,0,0,1-3.936-1.45,5.008,5.008,0,0,1-1.5-3.774V-5.3a6.489,6.489,0,0,1,.6-2.861,4.395,4.395,0,0,1,1.753-1.919,5.292,5.292,0,0,1,2.734-.679A4.574,4.574,0,0,1,10.361-9.38,5.43,5.43,0,0,1,11.65-5.527v1.279H5.107a2.372,2.372,0,0,0,.771,1.4,2.3,2.3,0,0,0,1.543.508A2.958,2.958,0,0,0,9.863-3.437l1.5,1.777A4.2,4.2,0,0,1,9.624-.308,5.891,5.891,0,0,1,7.2.2ZM6.826-8.223q-1.445,0-1.719,1.914h3.32v-.254a1.63,1.63,0,0,0-.4-1.226A1.593,1.593,0,0,0,6.826-8.223ZM17.441-2.344a1.464,1.464,0,0,0,1.074-.376,1.379,1.379,0,0,0,.371-1.05h3.086A3.653,3.653,0,0,1,20.728-.918,4.631,4.631,0,0,1,17.52.2,4.689,4.689,0,0,1,13.887-1.25a5.7,5.7,0,0,1-1.328-4v-.137a6.436,6.436,0,0,1,.591-2.827,4.3,4.3,0,0,1,1.7-1.885,5.081,5.081,0,0,1,2.637-.659,4.573,4.573,0,0,1,3.271,1.143,4.053,4.053,0,0,1,1.211,3.1H18.887a1.807,1.807,0,0,0-.4-1.26,1.382,1.382,0,0,0-1.074-.439q-1.279,0-1.494,1.631a11.508,11.508,0,0,0-.068,1.426,4.52,4.52,0,0,0,.381,2.207A1.319,1.319,0,0,0,17.441-2.344ZM27.2-13.193v2.627h1.738v2.285H27.2v4.834a1.234,1.234,0,0,0,.215.83,1.152,1.152,0,0,0,.85.234,4.828,4.828,0,0,0,.82-.059V-.088A6.074,6.074,0,0,1,27.227.2a3.448,3.448,0,0,1-2.51-.8,3.282,3.282,0,0,1-.811-2.432V-8.281H22.559v-2.285h1.348v-2.627Z" transform="translate(323 723)" fill="#12263f"/>
    <path id="Trazado_118000" data-name="Trazado 118000" d="M-25.894-3.779a1.408,1.408,0,0,0-.532-1.172A6.615,6.615,0,0,0-28.3-5.82a17.941,17.941,0,0,1-2.187-.869q-2.764-1.357-2.764-3.73a3.345,3.345,0,0,1,.688-2.085,4.453,4.453,0,0,1,1.948-1.406,7.582,7.582,0,0,1,2.832-.5,6.632,6.632,0,0,1,2.749.547,4.352,4.352,0,0,1,1.89,1.558A4.068,4.068,0,0,1-22.466-10h-3.418a1.719,1.719,0,0,0-.532-1.348,2.075,2.075,0,0,0-1.44-.479,2.339,2.339,0,0,0-1.45.405,1.243,1.243,0,0,0-.532,1.03,1.252,1.252,0,0,0,.586.991,7.389,7.389,0,0,0,2.061.918,12.623,12.623,0,0,1,2.422,1.021,4.07,4.07,0,0,1,2.3,3.662,3.472,3.472,0,0,1-1.406,2.93A6.255,6.255,0,0,1-27.729.2a7.653,7.653,0,0,1-3.13-.62,4.719,4.719,0,0,1-2.109-1.7,4.428,4.428,0,0,1-.708-2.485h3.438a2.181,2.181,0,0,0,.591,1.685,2.793,2.793,0,0,0,1.919.542,2.206,2.206,0,0,0,1.343-.366A1.209,1.209,0,0,0-25.894-3.779Zm11.328,2.637A3.393,3.393,0,0,1-17.388.2,3.328,3.328,0,0,1-20.02-.815a4.251,4.251,0,0,1-.894-2.905v-6.846h3.291V-3.7A1.183,1.183,0,0,0-16.3-2.344a1.72,1.72,0,0,0,1.611-.811v-7.412h3.311V0h-3.086ZM.229-5.2A6.44,6.44,0,0,1-.845-1.2,3.6,3.6,0,0,1-3.872.2a3.122,3.122,0,0,1-2.6-1.279L-6.606,0H-9.556V-15h3.291v5.283a3.013,3.013,0,0,1,2.373-1.045A3.6,3.6,0,0,1-.845-9.346,6.473,6.473,0,0,1,.229-5.361Zm-3.3-.21a4.3,4.3,0,0,0-.405-2.169,1.366,1.366,0,0,0-1.245-.648,1.576,1.576,0,0,0-1.543.848v4.192A1.585,1.585,0,0,0-4.7-2.344,1.4,1.4,0,0,0-3.228-3.475,8.121,8.121,0,0,0-3.071-5.405ZM5.22-10.566V.361A3.836,3.836,0,0,1,4.146,3.252,4.127,4.127,0,0,1,1.177,4.268,7.009,7.009,0,0,1-.376,4.1V1.611A6.3,6.3,0,0,0,.552,1.7,1.2,1.2,0,0,0,1.919.342V-10.566ZM1.675-13.291a1.469,1.469,0,0,1,.508-1.152A1.916,1.916,0,0,1,3.5-14.893a1.916,1.916,0,0,1,1.318.449,1.469,1.469,0,0,1,.508,1.152,1.469,1.469,0,0,1-.508,1.152,1.916,1.916,0,0,1-1.318.449,1.916,1.916,0,0,1-1.318-.449A1.469,1.469,0,0,1,1.675-13.291ZM12.192.2a5.432,5.432,0,0,1-3.936-1.45,5.008,5.008,0,0,1-1.5-3.774V-5.3a6.489,6.489,0,0,1,.6-2.861,4.395,4.395,0,0,1,1.753-1.919,5.292,5.292,0,0,1,2.734-.679A4.574,4.574,0,0,1,15.356-9.38a5.43,5.43,0,0,1,1.289,3.853v1.279H10.1a2.372,2.372,0,0,0,.771,1.4,2.3,2.3,0,0,0,1.543.508,2.958,2.958,0,0,0,2.441-1.094l1.5,1.777A4.2,4.2,0,0,1,14.619-.308,5.891,5.891,0,0,1,12.192.2Zm-.371-8.418q-1.445,0-1.719,1.914h3.32v-.254a1.63,1.63,0,0,0-.4-1.226A1.593,1.593,0,0,0,11.821-8.223ZM22.437-2.344a1.464,1.464,0,0,0,1.074-.376,1.379,1.379,0,0,0,.371-1.05h3.086A3.653,3.653,0,0,1,25.723-.918,4.631,4.631,0,0,1,22.515.2,4.689,4.689,0,0,1,18.882-1.25a5.7,5.7,0,0,1-1.328-4v-.137a6.436,6.436,0,0,1,.591-2.827,4.3,4.3,0,0,1,1.7-1.885,5.081,5.081,0,0,1,2.637-.659,4.573,4.573,0,0,1,3.271,1.143,4.053,4.053,0,0,1,1.211,3.1H23.882a1.807,1.807,0,0,0-.4-1.26,1.382,1.382,0,0,0-1.074-.439q-1.279,0-1.494,1.631a11.508,11.508,0,0,0-.068,1.426,4.52,4.52,0,0,0,.381,2.207A1.319,1.319,0,0,0,22.437-2.344Zm9.756-10.85v2.627h1.738v2.285H32.192v4.834a1.234,1.234,0,0,0,.215.83,1.152,1.152,0,0,0,.85.234,4.828,4.828,0,0,0,.82-.059V-.088A6.074,6.074,0,0,1,32.222.2a3.448,3.448,0,0,1-2.51-.8A3.282,3.282,0,0,1,28.9-3.037V-8.281H27.554v-2.285H28.9v-2.627Z" transform="translate(453 592)" fill="#12263f"/>
    <path id="Trazado_118001" data-name="Trazado 118001" d="M-38.193-6.816a8.385,8.385,0,0,1-.771,3.682A5.7,5.7,0,0,1-41.157-.669,6.1,6.1,0,0,1-44.395.2,6.191,6.191,0,0,1-47.617-.64,5.692,5.692,0,0,1-49.81-3.027a8.144,8.144,0,0,1-.825-3.564v-.8a8.422,8.422,0,0,1,.767-3.687,5.688,5.688,0,0,1,2.2-2.466,6.147,6.147,0,0,1,3.257-.869,6.087,6.087,0,0,1,3.223.859,5.79,5.79,0,0,1,2.2,2.446,8.18,8.18,0,0,1,.8,3.638Zm-3.486-.6a5.979,5.979,0,0,0-.708-3.218,2.271,2.271,0,0,0-2.026-1.1q-2.578,0-2.725,3.867l-.01,1.045A6.149,6.149,0,0,0-46.455-3.6,2.268,2.268,0,0,0-44.395-2.48a2.24,2.24,0,0,0,2-1.1,5.982,5.982,0,0,0,.713-3.174Zm9.57,5.068a1.464,1.464,0,0,0,1.074-.376,1.379,1.379,0,0,0,.371-1.05h3.086A3.653,3.653,0,0,1-28.823-.918,4.631,4.631,0,0,1-32.031.2,4.689,4.689,0,0,1-35.664-1.25a5.7,5.7,0,0,1-1.328-4v-.137A6.436,6.436,0,0,1-36.4-8.218,4.3,4.3,0,0,1-34.7-10.1a5.081,5.081,0,0,1,2.637-.659,4.573,4.573,0,0,1,3.271,1.143,4.053,4.053,0,0,1,1.211,3.1h-3.086a1.807,1.807,0,0,0-.4-1.26,1.382,1.382,0,0,0-1.074-.439q-1.279,0-1.494,1.631A11.507,11.507,0,0,0-33.7-5.166a4.52,4.52,0,0,0,.381,2.207A1.319,1.319,0,0,0-32.109-2.344Zm10.391,0a1.464,1.464,0,0,0,1.074-.376,1.379,1.379,0,0,0,.371-1.05h3.086A3.653,3.653,0,0,1-18.433-.918,4.631,4.631,0,0,1-21.641.2,4.689,4.689,0,0,1-25.273-1.25a5.7,5.7,0,0,1-1.328-4v-.137a6.436,6.436,0,0,1,.591-2.827,4.3,4.3,0,0,1,1.7-1.885,5.081,5.081,0,0,1,2.637-.659A4.573,4.573,0,0,1-18.4-9.619a4.053,4.053,0,0,1,1.211,3.1h-3.086a1.807,1.807,0,0,0-.4-1.26,1.382,1.382,0,0,0-1.074-.439q-1.279,0-1.494,1.631a11.508,11.508,0,0,0-.068,1.426,4.52,4.52,0,0,0,.381,2.207A1.319,1.319,0,0,0-21.719-2.344ZM-9.5-1.143A3.393,3.393,0,0,1-12.324.2,3.328,3.328,0,0,1-14.956-.815a4.251,4.251,0,0,1-.894-2.905v-6.846h3.291V-3.7A1.183,1.183,0,0,0-11.24-2.344a1.72,1.72,0,0,0,1.611-.811v-7.412h3.311V0H-9.4ZM5.293-5.205A6.372,6.372,0,0,1,4.185-1.274,3.554,3.554,0,0,1,1.191.2,3.046,3.046,0,0,1-1.2-.869V4.063H-4.492V-10.566h3.076l.1.977a3.046,3.046,0,0,1,2.49-1.172,3.582,3.582,0,0,1,3.037,1.44,6.45,6.45,0,0,1,1.084,3.96ZM2-5.41Q2-8.223.361-8.223a1.549,1.549,0,0,0-1.562.84v4.16a1.6,1.6,0,0,0,1.582.879Q1.953-2.344,2-5.059ZM12.7,0a3.716,3.716,0,0,1-.312-.947A3.06,3.06,0,0,1,9.844.2,3.749,3.749,0,0,1,7.3-.708,2.875,2.875,0,0,1,6.26-2.979a2.955,2.955,0,0,1,1.27-2.6,6.468,6.468,0,0,1,3.691-.879h1.016v-.559q0-1.462-1.26-1.462A1.03,1.03,0,0,0,9.8-7.319H6.514a2.95,2.95,0,0,1,1.3-2.487,5.479,5.479,0,0,1,3.325-.956,4.8,4.8,0,0,1,3.193.986,3.429,3.429,0,0,1,1.2,2.705v4.678a4.79,4.79,0,0,0,.449,2.227V0ZM10.635-2.148a1.836,1.836,0,0,0,1.021-.264,1.653,1.653,0,0,0,.581-.6V-4.7h-.957q-1.719,0-1.719,1.543a.942.942,0,0,0,.3.728A1.1,1.1,0,0,0,10.635-2.148ZM21.191-13.193v2.627H22.93v2.285H21.191v4.834a1.234,1.234,0,0,0,.215.83,1.152,1.152,0,0,0,.85.234,4.828,4.828,0,0,0,.82-.059V-.088A6.074,6.074,0,0,1,21.221.2a3.448,3.448,0,0,1-2.51-.8A3.282,3.282,0,0,1,17.9-3.037V-8.281H16.553v-2.285H17.9v-2.627ZM27.7,0h-3.3V-10.566h3.3ZM24.2-13.291a1.469,1.469,0,0,1,.508-1.152,1.916,1.916,0,0,1,1.318-.449,1.916,1.916,0,0,1,1.318.449,1.469,1.469,0,0,1,.508,1.152,1.469,1.469,0,0,1-.508,1.152,1.916,1.916,0,0,1-1.318.449,1.916,1.916,0,0,1-1.318-.449A1.469,1.469,0,0,1,24.2-13.291Zm5.107,7.91A6.236,6.236,0,0,1,29.922-8.2a4.4,4.4,0,0,1,1.768-1.9,5.323,5.323,0,0,1,2.705-.664,4.858,4.858,0,0,1,3.74,1.47,5.64,5.64,0,0,1,1.367,4v.117A5.472,5.472,0,0,1,38.13-1.255,4.871,4.871,0,0,1,34.414.2a4.927,4.927,0,0,1-3.623-1.353,5.29,5.29,0,0,1-1.475-3.667Zm3.291.205a3.932,3.932,0,0,0,.459,2.148,1.529,1.529,0,0,0,1.357.684q1.758,0,1.8-2.705v-.332q0-2.842-1.816-2.842-1.65,0-1.787,2.451Zm11.377-5.391.107,1.24A3.583,3.583,0,0,1,47.1-10.762a3.015,3.015,0,0,1,2.466.986,4.7,4.7,0,0,1,.845,2.969V0h-3.3V-6.67a1.783,1.783,0,0,0-.322-1.177,1.491,1.491,0,0,0-1.172-.376,1.569,1.569,0,0,0-1.436.762V0H40.889V-10.566Z" transform="translate(1083 592)" fill="#12263f"/>
    <path id="Trazado_118002" data-name="Trazado 118002" d="M-36.235,0h-3.408l-5.039-8.848V0H-48.11V-14.219h3.428l5.029,8.848v-8.848h3.418Zm7.969,0a3.716,3.716,0,0,1-.312-.947A3.06,3.06,0,0,1-31.118.2a3.749,3.749,0,0,1-2.539-.9A2.875,2.875,0,0,1-34.7-2.979a2.955,2.955,0,0,1,1.27-2.6,6.468,6.468,0,0,1,3.691-.879h1.016v-.559q0-1.462-1.26-1.462a1.03,1.03,0,0,0-1.172,1.158h-3.291a2.95,2.95,0,0,1,1.3-2.487,5.479,5.479,0,0,1,3.325-.956,4.8,4.8,0,0,1,3.193.986,3.429,3.429,0,0,1,1.2,2.705v4.678a4.79,4.79,0,0,0,.449,2.227V0Zm-2.061-2.148a1.836,1.836,0,0,0,1.021-.264,1.653,1.653,0,0,0,.581-.6V-4.7h-.957Q-31.4-4.7-31.4-3.154a.942.942,0,0,0,.3.728A1.1,1.1,0,0,0-30.327-2.148Zm10.557-11.045v2.627h1.738v2.285h-1.738v4.834a1.234,1.234,0,0,0,.215.83,1.152,1.152,0,0,0,.85.234,4.828,4.828,0,0,0,.82-.059V-.088A6.074,6.074,0,0,1-19.741.2a3.448,3.448,0,0,1-2.51-.8,3.282,3.282,0,0,1-.811-2.432V-8.281h-1.348v-2.285h1.348v-2.627ZM-13.267,0h-3.3V-10.566h3.3Zm-3.5-13.291a1.469,1.469,0,0,1,.508-1.152,1.916,1.916,0,0,1,1.318-.449,1.916,1.916,0,0,1,1.318.449,1.469,1.469,0,0,1,.508,1.152,1.469,1.469,0,0,1-.508,1.152,1.916,1.916,0,0,1-1.318.449,1.916,1.916,0,0,1-1.318-.449A1.469,1.469,0,0,1-16.763-13.291Zm5.107,7.91A6.236,6.236,0,0,1-11.04-8.2a4.4,4.4,0,0,1,1.768-1.9,5.323,5.323,0,0,1,2.705-.664,4.858,4.858,0,0,1,3.74,1.47,5.64,5.64,0,0,1,1.367,4v.117A5.472,5.472,0,0,1-2.832-1.255,4.871,4.871,0,0,1-6.548.2a4.927,4.927,0,0,1-3.623-1.353,5.29,5.29,0,0,1-1.475-3.667Zm3.291.205a3.932,3.932,0,0,0,.459,2.148,1.529,1.529,0,0,0,1.357.684q1.758,0,1.8-2.705v-.332q0-2.842-1.816-2.842-1.65,0-1.787,2.451ZM3.013-10.566l.107,1.24a3.583,3.583,0,0,1,3.018-1.436A3.015,3.015,0,0,1,8.6-9.775a4.7,4.7,0,0,1,.845,2.969V0h-3.3V-6.67a1.783,1.783,0,0,0-.322-1.177,1.491,1.491,0,0,0-1.172-.376,1.569,1.569,0,0,0-1.436.762V0H-.073V-10.566ZM17.222,0a3.716,3.716,0,0,1-.312-.947A3.06,3.06,0,0,1,14.37.2a3.749,3.749,0,0,1-2.539-.9,2.875,2.875,0,0,1-1.045-2.271,2.955,2.955,0,0,1,1.27-2.6,6.468,6.468,0,0,1,3.691-.879h1.016v-.559q0-1.462-1.26-1.462a1.03,1.03,0,0,0-1.172,1.158H11.04a2.95,2.95,0,0,1,1.3-2.487,5.479,5.479,0,0,1,3.325-.956,4.8,4.8,0,0,1,3.193.986,3.429,3.429,0,0,1,1.2,2.705v4.678a4.79,4.79,0,0,0,.449,2.227V0ZM15.161-2.148a1.836,1.836,0,0,0,1.021-.264,1.653,1.653,0,0,0,.581-.6V-4.7h-.957q-1.719,0-1.719,1.543a.942.942,0,0,0,.3.728A1.1,1.1,0,0,0,15.161-2.148ZM25.356,0h-3.3V-15h3.3Zm5.5,0h-3.3V-10.566h3.3Zm-3.5-13.291a1.469,1.469,0,0,1,.508-1.152,1.916,1.916,0,0,1,1.318-.449,1.916,1.916,0,0,1,1.318.449,1.469,1.469,0,0,1,.508,1.152,1.469,1.469,0,0,1-.508,1.152,1.916,1.916,0,0,1-1.318.449,1.916,1.916,0,0,1-1.318-.449A1.469,1.469,0,0,1,27.358-13.291Zm9.355.1v2.627h1.738v2.285H36.714v4.834a1.234,1.234,0,0,0,.215.83,1.152,1.152,0,0,0,.85.234,4.828,4.828,0,0,0,.82-.059V-.088A6.074,6.074,0,0,1,36.743.2a3.448,3.448,0,0,1-2.51-.8,3.282,3.282,0,0,1-.811-2.432V-8.281H32.075v-2.285h1.348v-2.627ZM43.97-4.609l1.758-5.957h3.525L44.946,1.768l-.186.449a3.272,3.272,0,0,1-3.242,2.051,5.158,5.158,0,0,1-1.357-.195V1.729h.43a2.251,2.251,0,0,0,1.06-.2A1.216,1.216,0,0,0,42.192.81l.264-.7L38.784-10.566H42.3Z" transform="translate(1268 708)" fill="#12263f"/>
    <path id="Trazado_118003" data-name="Trazado 118003" d="M-13.7-5.3l1.631-8.916h3.4L-11.689,0h-3.555l-1.9-8.105L-19.014,0h-3.545l-3.027-14.219h3.408L-20.547-5.3l1.953-8.916h2.91ZM9.531,0H6.123V-5.937H1.074V0H-2.354V-14.219H1.074v5.645H6.123v-5.645H9.531Zm9.434-4.5a6.356,6.356,0,0,1,.322-2.251,3.521,3.521,0,0,1,1.045-1.431,6.947,6.947,0,0,0,1.1-1.108,1.809,1.809,0,0,0,.376-1.108q0-1.475-1.27-1.475a1.178,1.178,0,0,0-.947.43,1.827,1.827,0,0,0-.381,1.162h-3.3a3.937,3.937,0,0,1,1.23-3.042,4.906,4.906,0,0,1,3.4-1.089,5.1,5.1,0,0,1,3.374,1.006,3.53,3.53,0,0,1,1.2,2.861,3.333,3.333,0,0,1-.322,1.475A4.984,4.984,0,0,1,23.75-7.715L22.627-6.67a2.642,2.642,0,0,0-.664.942A3.735,3.735,0,0,0,21.758-4.5Zm-.4,2.969a1.516,1.516,0,0,1,.522-1.187,1.892,1.892,0,0,1,1.3-.464,1.892,1.892,0,0,1,1.3.464,1.516,1.516,0,0,1,.522,1.187,1.516,1.516,0,0,1-.522,1.187,1.892,1.892,0,0,1-1.3.464,1.892,1.892,0,0,1-1.3-.464A1.516,1.516,0,0,1,18.564-1.533Z" transform="translate(591 1045)" fill="#12263f"/>
    <path id="Trazado_118004" data-name="Trazado 118004" d="M33.439,14.965H28.049v3.4h6.367V21H24.621V6.781h9.814V9.428H28.049v3h5.391Zm6.5-1.621,1.533-2.91h3.418L42.111,15.58,45.031,21H41.594l-1.66-3.125L38.3,21H34.846l2.93-5.42L35,10.434h3.457Zm9.844-5.537v2.627h1.738v2.285H49.787v4.834a1.234,1.234,0,0,0,.215.83,1.152,1.152,0,0,0,.85.234,4.828,4.828,0,0,0,.82-.059v2.354a6.074,6.074,0,0,1-1.855.283,3.448,3.448,0,0,1-2.51-.8,3.282,3.282,0,0,1-.811-2.432V12.719H45.148V10.434H46.5V7.807ZM57.932,21.2A5.432,5.432,0,0,1,54,19.745a5.008,5.008,0,0,1-1.5-3.774V15.7a6.489,6.489,0,0,1,.6-2.861,4.395,4.395,0,0,1,1.753-1.919,5.292,5.292,0,0,1,2.734-.679A4.574,4.574,0,0,1,61.1,11.62a5.43,5.43,0,0,1,1.289,3.853v1.279H55.842a2.372,2.372,0,0,0,.771,1.4,2.3,2.3,0,0,0,1.543.508A2.958,2.958,0,0,0,60.6,17.563l1.5,1.777a4.2,4.2,0,0,1-1.743,1.353A5.891,5.891,0,0,1,57.932,21.2Zm-.371-8.418q-1.445,0-1.719,1.914h3.32v-.254a1.63,1.63,0,0,0-.4-1.226A1.593,1.593,0,0,0,57.561,12.777Zm9.17-2.344.107,1.24a3.583,3.583,0,0,1,3.018-1.436,3.015,3.015,0,0,1,2.466.986,4.7,4.7,0,0,1,.845,2.969V21h-3.3V14.33a1.783,1.783,0,0,0-.322-1.177,1.491,1.491,0,0,0-1.172-.376,1.569,1.569,0,0,0-1.436.762V21H63.645V10.434Zm7.842,5.205a6.455,6.455,0,0,1,1.084-3.955,3.568,3.568,0,0,1,3.027-1.445,3.035,3.035,0,0,1,2.383,1.113V6h3.3V21H81.408l-.166-1.133A3.116,3.116,0,0,1,78.664,21.2a3.562,3.562,0,0,1-2.988-1.445A6.659,6.659,0,0,1,74.572,15.639Zm3.291.205q0,2.813,1.641,2.813a1.62,1.62,0,0,0,1.563-.918V13.715a1.576,1.576,0,0,0-1.543-.937q-1.523,0-1.65,2.461ZM91.35,21.2a5.432,5.432,0,0,1-3.936-1.45,5.008,5.008,0,0,1-1.5-3.774V15.7a6.489,6.489,0,0,1,.6-2.861,4.395,4.395,0,0,1,1.753-1.919A5.292,5.292,0,0,1,91,10.238a4.574,4.574,0,0,1,3.516,1.382A5.43,5.43,0,0,1,95.8,15.473v1.279H89.26a2.372,2.372,0,0,0,.771,1.4,2.3,2.3,0,0,0,1.543.508,2.958,2.958,0,0,0,2.441-1.094l1.5,1.777a4.2,4.2,0,0,1-1.743,1.353A5.891,5.891,0,0,1,91.35,21.2Zm-.371-8.418q-1.445,0-1.719,1.914h3.32v-.254a1.63,1.63,0,0,0-.4-1.226A1.593,1.593,0,0,0,90.979,12.777Zm5.732,2.861a6.455,6.455,0,0,1,1.084-3.955,3.568,3.568,0,0,1,3.027-1.445,3.035,3.035,0,0,1,2.383,1.113V6h3.3V21h-2.959l-.166-1.133A3.116,3.116,0,0,1,100.8,21.2a3.562,3.562,0,0,1-2.988-1.445A6.659,6.659,0,0,1,96.711,15.639Zm3.291.205q0,2.813,1.641,2.813a1.62,1.62,0,0,0,1.563-.918V13.715a1.576,1.576,0,0,0-1.543-.937q-1.523,0-1.65,2.461Z" transform="translate(1204 1020)" fill="#12263f"/>
    <path id="Trazado_115110" data-name="Trazado 115110" d="M1560.333-10831h-125" transform="translate(-857 11727)" fill="none" stroke="#3c3fa7" stroke-width="3"/>
    <path id="Trazado_115111" data-name="Trazado 115111" d="M1655.333-10950.333v-71h-95" transform="translate(-857 11737.333)" fill="none" stroke="#3c3fa7" stroke-width="3"/>
    <path id="Trazado_115112" data-name="Trazado 115112" d="M1875.333-10831H1814v-25h-63.667" transform="translate(-857 11727)" fill="none" stroke="#3c3fa7" stroke-width="3"/>
    <path id="Trazado_115113" data-name="Trazado 115113" d="M1884-10971v55.5H1712" transform="translate(-876 11722.5)" fill="none" stroke="#3c3fa7" stroke-width="3"/>
    <path id="Trazado_118005" data-name="Trazado 118005" d="M95,0A95,95,0,1,1,0,95,95,95,0,0,1,95,0Z" transform="translate(703 787)" fill="#ffd947"/>
    <path id="Trazado_118006" data-name="Trazado 118006" d="M-22.828,0h-3.328L-30.9-11.379-32.883,0h-3.434l2.965-17.062h3.316l4.758,11.4,1.98-11.4h3.422Zm6.352,0H-19.8l2.2-12.68h3.328Zm-.738-15.9a1.651,1.651,0,0,1,.516-1.3,1.814,1.814,0,0,1,1.3-.516,1.823,1.823,0,0,1,1.3.457,1.644,1.644,0,0,1,.574,1.242,1.7,1.7,0,0,1-.486,1.266,1.823,1.823,0,0,1-1.33.563,1.853,1.853,0,0,1-1.295-.445A1.636,1.636,0,0,1-17.215-15.9ZM-8.344-4.184l3.609-8.5h3.563L-7.3,0h-3.164l-2.168-12.68h3.352ZM4.23.234A5.516,5.516,0,0,1,1.283-.58a4.938,4.938,0,0,1-1.916-2.2,6.14,6.14,0,0,1-.492-3.088l.035-.469a8.2,8.2,0,0,1,1.078-3.4,6.512,6.512,0,0,1,2.32-2.385,5.741,5.741,0,0,1,3.141-.791,4.386,4.386,0,0,1,3.709,1.8,6.175,6.175,0,0,1,.955,4.442L9.926-5.227H2.156a2.721,2.721,0,0,0,.6,1.969A2.281,2.281,0,0,0,4.512-2.5,4.054,4.054,0,0,0,7.676-3.9L9.188-2.027A4.7,4.7,0,0,1,7.125-.346,6.745,6.745,0,0,1,4.23.234ZM5.285-10.184a2.348,2.348,0,0,0-1.623.574A5.045,5.045,0,0,0,2.391-7.535H6.938l.07-.3A3.106,3.106,0,0,0,7.02-8.73a1.7,1.7,0,0,0-.574-1.061A1.8,1.8,0,0,0,5.285-10.184ZM14.4,0H11.074L14.2-18H17.52ZM34.465,0H23.1l.387-2.461,6.059-5.684a13.421,13.421,0,0,0,2.473-2.836,3.322,3.322,0,0,0,.457-2.133A1.591,1.591,0,0,0,30.8-14.6a2.4,2.4,0,0,0-1.881.785A3.68,3.68,0,0,0,28-11.7l-3.3.012a5.794,5.794,0,0,1,.949-2.895A5.823,5.823,0,0,1,27.92-16.6,6.608,6.608,0,0,1,31-17.309a5.243,5.243,0,0,1,3.7,1.336,4.134,4.134,0,0,1,1.172,3.434q-.187,2.414-2.848,5.039L31.336-5.895,27.844-2.754,34.9-2.73Z" transform="translate(798 944.5)" fill="#ff5f65"/>
    <path id="Trazado_115114" data-name="Trazado 115114" d="M1940-11119v44h-75v30" transform="translate(-857 11727)" fill="none" stroke="#ff5f65" stroke-width="3"/>
    <path id="Trazado_115115" data-name="Trazado 115115" d="M1960.333-11014H2001v52h127v-42" transform="translate(-857 11727)" fill="none" stroke="#ff5f65" stroke-width="3"/>
    <path id="Trazado_115116" data-name="Trazado 115116" d="M1409-11142h64v98" transform="translate(-861 11727)" fill="none" stroke="#ff5f65" stroke-width="3"/>
    <path id="Trazado_115117" data-name="Trazado 115117" d="M1370-11010h-96" transform="translate(-857 11727)" fill="none" stroke="#ff5f65" stroke-width="3"/>
    <path id="Trazado_115118" data-name="Trazado 115118" d="M1330.333-10798v48H1184v36" transform="translate(-857 11727)" fill="none" stroke="#ff5f65" stroke-width="3"/>
    <path id="Trazado_115119" data-name="Trazado 115119" d="M1350.333-10798v45H1444v42" transform="translate(-857 11727)" fill="none" stroke="#ff5f65" stroke-width="3"/>
    <path id="Trazado_115120" data-name="Trazado 115120" d="M1960.333-10798v34.287H1816V-10725" transform="translate(-857 11727)" fill="none" stroke="#ff5f65" stroke-width="3"/>
    <path id="Trazado_115121" data-name="Trazado 115121" d="M2065.333-10831H2125v106" transform="translate(-857 11727)" fill="none" stroke="#ff5f65" stroke-width="3"/>
    <g id="signage" transform="translate(727.295 830.065)">
      <g id="Grupo_83572" data-name="Grupo 83572" transform="translate(33.904 1.199)">
        <path id="Trazado_117342" data-name="Trazado 117342" d="M223.3,409.09h10.459v15.256H223.3Z" transform="translate(-194.019 -344.875)" fill="#30579d"/>
        <path id="Trazado_117343" data-name="Trazado 117343" d="M223.3,409.09h10.459v8.784H223.3Z" transform="translate(-194.019 -344.875)" fill="#26457d"/>
        <path id="Trazado_117344" data-name="Trazado 117344" d="M223.3,409.09h3.744v15.256H223.3Z" transform="translate(-194.019 -344.875)" fill="#26457d"/>
        <path id="Trazado_117345" data-name="Trazado 117345" d="M52.988,76.512H96.436A12.782,12.782,0,0,0,109.217,63.73V20.282A12.782,12.782,0,0,0,96.436,7.5H52.988A12.782,12.782,0,0,0,40.206,20.282V63.73A12.782,12.782,0,0,0,52.988,76.512Z" transform="translate(-40.206 -7.5)" fill="#f6f9f9"/>
        <path id="Trazado_117346" data-name="Trazado 117346" d="M78.19,96.918a7.994,7.994,0,0,1-7.985-7.985V45.485A7.994,7.994,0,0,1,78.19,37.5h43.448a7.994,7.994,0,0,1,7.985,7.985V88.933a7.994,7.994,0,0,1-7.985,7.985Z" transform="translate(-65.408 -32.703)" fill="#6bbef6"/>
        <g id="Grupo_83571" data-name="Grupo 83571" transform="translate(25.328 10.397)">
          <path id="Trazado_117347" data-name="Trazado 117347" d="M206.729,101.117c-4.312,0-4.65-.113-5.074-.254a3.334,3.334,0,0,1-2.137-2.169,3.7,3.7,0,0,1,.646-3.235c.23-.335.551-.755,1.037-1.392,1.1-1.443,3.154-4.13,6.594-9.044a11.338,11.338,0,0,0,1.786-3.478l.053-.417a2.373,2.373,0,0,0-4.7-.3,3.2,3.2,0,1,1-6.276-1.233,8.769,8.769,0,0,1,17.373,1.7,3.208,3.208,0,0,1-.026.405l-.108.842a3.177,3.177,0,0,1-.057.317,17.254,17.254,0,0,1-2.81,5.837c-1.782,2.546-3.2,4.51-4.315,6.02,1.589-.008,3.336-.023,5-.044a3.2,3.2,0,1,1,.08,6.4c-3.117.039-5.395.056-7.071.056Z" transform="translate(-198.602 -72.519)" fill="#f6f9f9"/>
        </g>
      </g>
      <g id="Grupo_83573" data-name="Grupo 83573" transform="translate(32.705 0)">
        <path id="Trazado_117348" data-name="Trazado 117348" d="M90.134,0H46.686A14,14,0,0,0,32.705,13.981V57.429A14,14,0,0,0,46.686,71.41h15.3v9.26a1.2,1.2,0,0,0,1.2,1.2H73.64a1.2,1.2,0,0,0,1.2-1.2V71.41h15.3a14,14,0,0,0,13.981-13.981V13.981A14,14,0,0,0,90.134,0ZM72.44,79.471H64.38V71.41H72.44Zm29.276-22.042A11.6,11.6,0,0,1,90.134,69.012H46.686A11.6,11.6,0,0,1,35.1,57.429V13.981A11.6,11.6,0,0,1,46.686,2.4H90.134a11.6,11.6,0,0,1,11.583,11.583V57.429Z" transform="translate(-32.705 0)"/>
        <path id="Trazado_117349" data-name="Trazado 117349" d="M115.341,30H71.893a9.194,9.194,0,0,0-9.183,9.185V82.631A9.147,9.147,0,0,0,69.165,91.4a1.2,1.2,0,1,0,.714-2.29,6.759,6.759,0,0,1-4.77-6.481V39.185A6.793,6.793,0,0,1,71.893,32.4h43.448a6.793,6.793,0,0,1,6.785,6.786V82.631a6.793,6.793,0,0,1-6.785,6.786H74.292a1.2,1.2,0,1,0,0,2.4h41.05a9.194,9.194,0,0,0,9.183-9.185V39.185A9.194,9.194,0,0,0,115.341,30Z" transform="translate(-57.912 -25.203)"/>
        <path id="Trazado_117350" data-name="Trazado 117350" d="M118.417,299.611a1.2,1.2,0,0,0-.007-2.4H118.4c-1.049.006-2.178.01-2.99.01V286.439a1.2,1.2,0,0,0-2.4,0v11.973a1.2,1.2,0,0,0,1,1.182,11.756,11.756,0,0,0,1.479.028C116.128,299.622,117.057,299.619,118.417,299.611Z" transform="translate(-100.173 -239.63)"/>
        <path id="Trazado_117351" data-name="Trazado 117351" d="M368.944,285.24a1.2,1.2,0,0,0-1.2,1.2v11.973a1.2,1.2,0,0,0,1,1.182,11.769,11.769,0,0,0,1.48.028c.638,0,1.566,0,2.926-.011a1.2,1.2,0,0,0-.007-2.4h-.007c-1.049.006-2.178.01-2.99.01V286.439A1.2,1.2,0,0,0,368.944,285.24Z" transform="translate(-314.172 -239.63)"/>
        <path id="Trazado_117352" data-name="Trazado 117352" d="M164.945,287.123V299a1.2,1.2,0,0,0,1.2,1.2h5a1.2,1.2,0,1,0,0-2.4h-3.8v-3.538h3.435a1.2,1.2,0,0,0,0-2.4h-3.435v-3.538h3.8a1.2,1.2,0,1,0,0-2.4h-5A1.2,1.2,0,0,0,164.945,287.123Z" transform="translate(-143.8 -240.204)"/>
        <path id="Trazado_117353" data-name="Trazado 117353" d="M310.5,288.323a1.2,1.2,0,0,0,0-2.4h-5a1.2,1.2,0,0,0-1.2,1.2V299a1.2,1.2,0,0,0,1.2,1.2h5a1.2,1.2,0,0,0,0-2.4h-3.8v-3.538h3.435a1.2,1.2,0,1,0,0-2.4H306.7v-3.538Z" transform="translate(-260.871 -240.205)"/>
        <path id="Trazado_117354" data-name="Trazado 117354" d="M230.5,286.082l-3.05,9.181-3.2-9.218a1.2,1.2,0,1,0-2.266.787l4.1,11.811a1.471,1.471,0,0,0,1.385.978h.01a1.473,1.473,0,0,0,1.384-1l3.912-11.777a1.2,1.2,0,0,0-2.276-.756Z" transform="translate(-191.665 -239.629)"/>
        <path id="Trazado_117355" data-name="Trazado 117355" d="M200.966,67.418a7.532,7.532,0,0,1,5.975,2.926,1.2,1.2,0,0,0,1.891-1.475,9.966,9.966,0,0,0-17.647,4.19,4.4,4.4,0,0,0,8.63,1.7,1.174,1.174,0,0,1,2.311.056l-.025.2a10.442,10.442,0,0,1-1.589,3.023c-3.444,4.92-5.473,7.576-6.572,9.015-.493.646-.819,1.072-1.066,1.432a4.793,4.793,0,0,0-.8,4.266,4.54,4.54,0,0,0,2.9,2.955c.621.206,1.145.314,5.453.314,1.8,0,4.185-.019,7.086-.056a4.4,4.4,0,1,0-.11-8.793c-.841.011-1.721.02-2.613.027.933-1.29,1.912-2.667,2.927-4.116a18.487,18.487,0,0,0,3-6.259,4.246,4.246,0,0,0,.076-.429l.11-.855a4.593,4.593,0,0,0,.034-.547,10.243,10.243,0,0,0-.061-1.109,1.2,1.2,0,1,0-2.384.261,7.842,7.842,0,0,1,.047.848,2.219,2.219,0,0,1-.016.253l-.11.852c-.007.059-.019.125-.034.189a16.143,16.143,0,0,1-2.624,5.422c-1.527,2.181-2.974,4.2-4.3,5.995a1.2,1.2,0,0,0,.965,1.911h.006c1.686-.008,3.418-.023,5.006-.043h.02a2.006,2.006,0,0,1,2.007,1.973,2,2,0,0,1-1.974,2.024c-2.891.037-5.265.056-7.055.056-4.121,0-4.44-.106-4.7-.191a2.135,2.135,0,0,1-1.37-1.385,2.483,2.483,0,0,1,.489-2.2c.212-.308.523-.716,1-1.343,1.1-1.441,3.15-4.124,6.622-9.084a12.65,12.65,0,0,0,1.964-3.862,1.2,1.2,0,0,0,.03-.154l.053-.417a1.187,1.187,0,0,0,.007-.231,3.572,3.572,0,0,0-7.068-.453,2,2,0,1,1-3.923-.77,7.58,7.58,0,0,1,7.427-6.1Z" transform="translate(-165.774 -54.622)"/>
      </g>
    </g>
  </g>
</svg>
