<svg xmlns="http://www.w3.org/2000/svg" xmlns:xlink="http://www.w3.org/1999/xlink" width="325.155" height="592.24" viewBox="0 0 325.155 592.24">
  <defs>
    <clipPath id="clip-path">
      <rect y="31" width="325.155" height="592.24" fill="none"/>
    </clipPath>
  </defs>
  <g id="Grupo_84013" data-name="Grupo 84013" transform="translate(-1708.845 10546.24)">
    <g id="Grupo_de_desplazamiento_2" data-name="Grupo de desplazamiento 2" transform="translate(1708.845 -10577.24)" clip-path="url(#clip-path)" style="isolation: isolate">
      <g id="Grupo_84012" data-name="Grupo 84012" transform="translate(-1708.845 10577.24)">
        <path id="Trazado_116790" data-name="Trazado 116790" d="M504.721,295.828c3.144-26.455,17.693-50.123,24.474-75.887,5.077-19.289,5.717-39.422,8.214-59.211s7.166-39.993,19.026-56.03c15.807-21.372,44.169-32.67,70.342-28.02s48.907,25.029,56.382,50.539c9.641,32.9-4.988,67.8-4.179,102.073.449,19.025,5.665,37.568,8.813,56.336s4.09,38.739-3.575,56.158c-10.246,23.283-34.629,38.045-59.657,42.6-24.9,4.527-50.939.091-75.643-3.888-19.87-3.2-33.145-26.6-39.345-43.874A89.9,89.9,0,0,1,504.721,295.828Z" transform="translate(1570.959 -10959.237) rotate(40)" fill="#ffd947"/>
        <rect id="Rectángulo_34443" data-name="Rectángulo 34443" width="172" height="50" rx="25" transform="translate(1804 -10025)" fill="#fff"/>
        <g id="vocabulario" transform="translate(1740.65 -10039.443)">
          <path id="Trazado_116737" data-name="Trazado 116737" d="M89.694,184.51v18.41H56.7v-9.207H46.725v9.207h-.668a9.069,9.069,0,0,1-1.527-.129,9.2,9.2,0,0,1,1.527-18.282Z" transform="translate(-1.716 -126.347)" fill="#f2e1d6"/>
          <path id="Trazado_116738" data-name="Trazado 116738" d="M61.34,213.87h2.2v9.2h-.668a9.069,9.069,0,0,1-1.527-.129Z" transform="translate(-18.526 -146.501)" fill="#d6c0b4"/>
          <path id="Trazado_116739" data-name="Trazado 116739" d="M100.15,213.87h2.2v9.2h-2.2Z" transform="translate(-45.166 -146.501)" fill="#d6c0b4"/>
          <path id="Trazado_116740" data-name="Trazado 116740" d="M114.171,4.648V58.172a1.707,1.707,0,0,1-1.706,1.706H66.214V2.942h46.251a1.707,1.707,0,0,1,1.706,1.706Z" transform="translate(-21.872 -1.715)" fill="#fc5d3d"/>
          <path id="Trazado_116741" data-name="Trazado 116741" d="M87.763,43.156A3.767,3.767,0,0,1,84,39.393V24.263A3.767,3.767,0,0,1,87.763,20.5H117a3.767,3.767,0,0,1,3.763,3.763v15.13A3.767,3.767,0,0,1,117,43.156Z" transform="translate(-34.081 -13.768)" fill="#b25035"/>
          <path id="Trazado_116742" data-name="Trazado 116742" d="M121.809,45.766H92.568A1.568,1.568,0,0,1,91,44.2V29.068A1.568,1.568,0,0,1,92.568,27.5h29.241a1.568,1.568,0,0,1,1.568,1.568V44.2A1.568,1.568,0,0,1,121.809,45.766Z" transform="translate(-38.886 -18.572)" fill="#efefef"/>
          <path id="Trazado_116743" data-name="Trazado 116743" d="M89.695,184.51v2.9H46.06a9.211,9.211,0,0,0-9.094,7.756,9.357,9.357,0,0,1-.113-1.448,9.207,9.207,0,0,1,9.207-9.2Z" transform="translate(-1.718 -126.347)" fill="#d6c0b4"/>
          <path id="Trazado_116744" data-name="Trazado 116744" d="M209.69,179.072v18.411a1.705,1.705,0,0,1-1.7,1.7H205.37V180.777h2.615A1.705,1.705,0,0,0,209.69,179.072Z" transform="translate(-117.392 -122.615)" fill="#b25035"/>
          <path id="Trazado_116745" data-name="Trazado 116745" d="M46.059,2.942V59.878a9.207,9.207,0,0,0-9.207,9.2V12.149a9.208,9.208,0,0,1,9.207-9.207Z" transform="translate(-1.717 -1.715)" fill="#afafaf"/>
          <path id="Trazado_116746" data-name="Trazado 116746" d="M78.314,213.861v11.324a.966.966,0,0,1-1.616.714l-3.373-3.073L69.953,225.9a.966.966,0,0,1-1.616-.714V213.861Z" transform="translate(-23.329 -146.495)" fill="#72c2e9"/>
          <path id="Trazado_116747" data-name="Trazado 116747" d="M68.34,213.86h9.975v2.822H68.34Z" transform="translate(-23.331 -146.494)" fill="#4ba5c8"/>
          <path id="Trazado_116748" data-name="Trazado 116748" d="M207.169,62.772a.784.784,0,0,1-.784-.784v-.941a.784.784,0,1,1,1.568,0v.941A.784.784,0,0,1,207.169,62.772Zm0-4.077a.784.784,0,0,1-.784-.784V11.489a.784.784,0,1,1,1.568,0V57.912A.784.784,0,0,1,207.169,58.7Z" transform="translate(-118.088 -7.044)" fill="#ffcbc3"/>
          <path id="Trazado_116749" data-name="Trazado 116749" d="M111.318,49.688a.784.784,0,0,0,.784-.784V42.291a4.271,4.271,0,1,0-8.542,0V48.9a.784.784,0,1,0,1.568,0,0,0,0,0,0,0,0v-3.76h5.409V48.9a.784.784,0,0,0,.784.784Zm-6.193-6.115V42.291a2.7,2.7,0,0,1,5.409,0v1.283Z" transform="translate(-47.507 -25.794)"/>
          <path id="Trazado_116750" data-name="Trazado 116750" d="M155.229,49.687H162.2a.784.784,0,1,0,0-1.568h-5.481l6.127-8.871a.783.783,0,0,0-.646-1.229h-6.974a.784.784,0,1,0,0,1.568h5.481l-6.127,8.871a.784.784,0,0,0,.646,1.229Z" transform="translate(-82.434 -25.793)"/>
          <path id="Trazado_116751" data-name="Trazado 116751" d="M141.615,55.729H139.26a.784.784,0,0,0,0,1.568h2.355a.784.784,0,1,0,0-1.568Z" transform="translate(-71.476 -37.949)"/>
          <path id="Trazado_116752" data-name="Trazado 116752" d="M90.852,44.834h12.622a.784.784,0,0,0,0-1.568H90.852a.785.785,0,0,1-.784-.784V27.352a.785.785,0,0,1,.784-.784h29.241a.785.785,0,0,1,.784.784v15.13a.785.785,0,0,1-.784.784H109.745a.784.784,0,1,0,0,1.568h10.348a2.354,2.354,0,0,0,2.352-2.352V27.352A2.354,2.354,0,0,0,120.093,25H90.852A2.354,2.354,0,0,0,88.5,27.352v15.13A2.354,2.354,0,0,0,90.852,44.834Z" transform="translate(-37.17 -16.856)"/>
          <circle id="Elipse_4784" data-name="Elipse 4784" cx="0.784" cy="0.784" r="0.784" transform="translate(68.656 26.41)"/>
          <path id="Trazado_116753" data-name="Trazado 116753" d="M125.434,225.029a.784.784,0,1,0,.784.784.784.784,0,0,0-.784-.784Z" transform="translate(-61.984 -154.161)"/>
          <circle id="Elipse_4785" data-name="Elipse 4785" cx="0.784" cy="0.784" r="0.784" transform="translate(34.35 24.249)"/>
          <path id="Trazado_116754" data-name="Trazado 116754" d="M93.083,2.932s0-.008,0-.013A2.492,2.492,0,0,0,90.593.443H44.342a10,10,0,0,0-9.991,9.977s0,.008,0,.013V21.9s0,.009,0,.013,0,.012,0,.018a.784.784,0,1,0,1.568,0,8.434,8.434,0,0,1,7.639-8.385V27.428a10,10,0,0,0-7.64,4.6V28.168a.784.784,0,1,0-1.568,0v39.2a9.952,9.952,0,0,0,9.874,9.984V78.69a1.749,1.749,0,0,0,2.928,1.293L50,77.391l2.844,2.592a1.749,1.749,0,0,0,2.928-1.293V77.357H90.593a2.492,2.492,0,0,0,2.489-2.489c0-5.576,0-57.846,0-60.335a.784.784,0,1,0-1.568,0V56.445s0,.008,0,.012a.922.922,0,0,1-.921.921H45.126V2.011H90.593a.922.922,0,0,1,.922.922s0,0,0,.006V8.263a.784.784,0,0,0,1.568,0ZM35.918,16.567V10.443s0-.006,0-.009a8.435,8.435,0,0,1,7.639-8.387v9.924A9.995,9.995,0,0,0,35.918,16.567Zm0,45.436v-9.15s0-.006,0-.009a8.434,8.434,0,0,1,7.639-8.385V57.409A10.025,10.025,0,0,0,35.918,62Zm0-24.617A8.434,8.434,0,0,1,43.558,29V42.886a10,10,0,0,0-7.64,4.6V37.395s0-.006,0-.009ZM53.9,78.824l-3.372-3.073a.784.784,0,0,0-1.056,0L46.1,78.824a.18.18,0,0,1-.3-.134c0-3.654,0,1.874,0-10.537H54.2c0,7.876,0,9.645,0,10.537A.18.18,0,0,1,53.9,78.824Zm1.872-6.388h4.546a.784.784,0,1,0,0-1.568H55.768V68.153H87.194v2.715H66.586a.784.784,0,1,0,0,1.568H87.194v3.352H55.768Zm35.746,2.432a.922.922,0,0,1-.921.921H88.762V58.947h1.831a2.609,2.609,0,0,0,.921-.177Zm-4.32-15.922V62.3H46.618a.784.784,0,0,0,0,1.568H87.194v2.718H41.49a.784.784,0,1,0,0,1.568h2.734v7.635a8.4,8.4,0,0,1-8.306-8.416s0,0,0-.005a8.431,8.431,0,0,1,8.423-8.42H87.194Z" transform="translate(0)"/>
          <circle id="Elipse_4786" data-name="Elipse 4786" cx="0.784" cy="0.784" r="0.784" transform="translate(91.515 10.615)"/>
        </g>
        <text id="Vocabulary" transform="translate(1851.017 -9994.5)" fill="#ff5f65" font-size="16" font-family="Roboto-BoldItalic, Roboto" font-weight="700" font-style="italic"><tspan x="0" y="0">Vocabulary</tspan></text>
        <g id="Grupo_83424" data-name="Grupo 83424" transform="translate(1557.027 -11609.843)">
          <path id="Trazado_116791" data-name="Trazado 116791" d="M415.448,1593.025H152.87a1.052,1.052,0,1,1,0-2.1H415.448a1.052,1.052,0,1,1,0,2.1Z" transform="translate(0 -192.004)" fill="#6a2810"/>
          <path id="Trazado_116792" data-name="Trazado 116792" d="M578.055,1407.7a56.663,56.663,0,0,0-3.493,4.573c-16.916,24.589-23.971,70.932-42.29,82.616-19.525,12.456-44.1-1.683-48.813-28.614l26.258-24.715s8.57,19.434,14.138,11.25c4.468-6.565,28.951-40.755,38.377-53.9,2.3-3.2,3.7-5.162,3.7-5.162Z" transform="translate(-138.705 -109.538)" fill="#ffaf82"/>
          <path id="Trazado_116793" data-name="Trazado 116793" d="M667,1367.671s3.2,5.891-10.6,13.129-14.307,8.752-21.713,11.445a56.677,56.677,0,0,0-3.493,4.573l-12.329-13.367c2.3-3.2,3.7-5.162,3.7-5.162a27.207,27.207,0,0,1,4.208-12.133c3.872-5.891,4.882-10.1,7.911-9.258s-1.01,9.762,0,10.6,27.773-13.339,31.308-6.081C665.994,1361.423,669.023,1363.3,667,1367.671Z" transform="translate(-195.337 -94.083)" fill="#ffaf82"/>
          <path id="Trazado_116794" data-name="Trazado 116794" d="M507.475,1440.685s-14.833,22.765-36.336,34.267a57.022,57.022,0,0,1-13.087,5.14v-.007c-.372-.729-21.244-42.444-10.871-115.334l6.136,1.382,4.545,1.024s19.988,5.863,25.374,24.378S507.475,1440.685,507.475,1440.685Z" transform="translate(-122.324 -97.412)" fill="#39ad98"/>
          <path id="Trazado_116795" data-name="Trazado 116795" d="M655.721,1374.494a1.052,1.052,0,0,1-.439-2.009c9.874-4.519,25.211-9.444,25.365-9.492a1.052,1.052,0,1,1,.641,2c-.152.048-15.372,4.936-25.13,9.4A1.055,1.055,0,0,1,655.721,1374.494Z" transform="translate(-210.311 -96.655)" fill="#fe976a"/>
          <path id="Trazado_116796" data-name="Trazado 116796" d="M393.479,1474.122a169.715,169.715,0,0,0,.428,17.288H289.9V1363.684l4.019-.954.659-.154,3.388-.8,1.346-.316,13.592-3.212,8.641-2.041,3.148-.743,11.53-2.729,9.552-2.259,10.316,2.329,9.952,2.237,4.6,1.038,8.647,1.95,3.317.75,6.151,1.382,4.53,1.024s-4.923,13.606,0,36.329c2.4,11.088,4.054,18.333,4.58,25.949.568,8-.105,16.4-2.434,30.1a146.85,146.85,0,0,0-1.956,20.549Z" transform="translate(-57.751 -91.442)" fill="#39ad98"/>
          <path id="Trazado_116797" data-name="Trazado 116797" d="M393.15,1525.521H289.143a1.052,1.052,0,1,1,0-2.1H392.019c-.375-5.408-.492-10.874-.348-16.264a147.8,147.8,0,0,1,1.971-20.7c2.305-13.561,2.984-21.93,2.422-29.851-.485-7.014-1.911-13.592-4.071-23.547l-.488-2.253a1.052,1.052,0,1,1,2.057-.445l.488,2.251c2.179,10.046,3.619,16.684,4.113,23.847.575,8.1-.11,16.61-2.446,30.35a145.777,145.777,0,0,0-1.942,20.4,168.519,168.519,0,0,0,.425,17.187,1.052,1.052,0,0,1-1.049,1.131Z" transform="translate(-56.995 -124.501)" fill="#6a2810"/>
          <path id="Trazado_116798" data-name="Trazado 116798" d="M401.371,1377.618c-5.38,2.42-14.56-1.486-13.718-8.893,0,0,3.773-10.316,9.3-14.244l9.952,2.237C410.179,1362.546,409.366,1374.027,401.371,1377.618Z" transform="translate(-98.613 -93.116)" fill="#fff"/>
          <path id="Trazado_116799" data-name="Trazado 116799" d="M354.989,1376.733c-7.455-3.346-8.669-13.557-6.144-19.644l11.53-2.729c5,4.349,8.332,13.48,8.332,13.48C369.549,1375.246,360.368,1379.145,354.989,1376.733Z" transform="translate(-81.904 -93.066)" fill="#fff"/>
          <path id="Trazado_116800" data-name="Trazado 116800" d="M365.016,1546.522l-5.926,17.484s-2,.218-5.463.582c-19.63,2.034-86.39,8.577-104.414,5.141-9.938-1.894-13.739-7.854-14.8-15.661-1.2-8.858,1.115-20.086,2.013-30.459,0,0,38.713-1.01,39.87,9.426.2,1.831,1.55,3.4,3.766,4.741,10.415,6.319,40,7.6,59.711,7.042a158.559,158.559,0,0,1,19.322.322C364.539,1545.681,365.016,1546.522,365.016,1546.522Z" transform="translate(-34.401 -163.841)" fill="#ffaf82"/>
          <path id="Trazado_116801" data-name="Trazado 116801" d="M450.256,1609.128c-3.787,2.777-6.312.758-6.312.758-5.555,2.02-5.618-2.02-5.618-2.02-5.617,1.515-6-3.282-6-3.282-3.787-.253-3.03-5.05,3.254-11.109a18.268,18.268,0,0,0,5.463-13.97s-2,.217-5.463.582l5.463-19.448c5.449.541,5.926,1.382,5.926,1.382a19.607,19.607,0,0,1,12.372,17.484C460.1,1593.054,454.043,1606.351,450.256,1609.128Z" transform="translate(-116.359 -179.339)" fill="#ffaf82"/>
          <path id="Trazado_116802" data-name="Trazado 116802" d="M433.229,1626.49a1.052,1.052,0,0,1-.472-1.993c.087-.044,6.413-3.33,11.937-13.45a1.052,1.052,0,0,1,1.847,1.008c-5.879,10.771-12.563,14.184-12.845,14.325A1.05,1.05,0,0,1,433.229,1626.49Z" transform="translate(-117.256 -200.193)" fill="#fe976a"/>
          <path id="Trazado_116803" data-name="Trazado 116803" d="M443.536,1629.772a1.052,1.052,0,0,1-.632-1.894c.081-.061,8.135-6.217,10.032-16.517a1.052,1.052,0,1,1,2.069.381,30.93,30.93,0,0,1-10.841,17.821A1.045,1.045,0,0,1,443.536,1629.772Z" transform="translate(-121.568 -200.193)" fill="#fe976a"/>
          <path id="Trazado_116804" data-name="Trazado 116804" d="M453.192,1632.73a1.052,1.052,0,0,1-.648-1.881c.086-.068,5.815-4.73,8.206-17.251a1.052,1.052,0,1,1,2.067.395c-2.561,13.408-8.721,18.314-8.981,18.517A1.05,1.05,0,0,1,453.192,1632.73Z" transform="translate(-125.606 -201.131)" fill="#fe976a"/>
          <path id="Trazado_116805" data-name="Trazado 116805" d="M280.057,1537.776c-14.069,9.321-35.768,14.371-45.65,16.292-1.2-8.858,1.115-20.086,2.013-30.459,0,0,38.713-1.01,39.87,9.426C276.494,1534.866,277.84,1536.437,280.057,1537.776Z" transform="translate(-34.401 -163.841)" fill="#fe976a"/>
          <path id="Trazado_116806" data-name="Trazado 116806" d="M389.762,1253.679c-16.706,8.857-35.046,2.083-49.044,1.648a27.2,27.2,0,0,0-8.746.912,116.329,116.329,0,0,1-31.532,4.1c-12.175-.078-24.4-2.245-31.84-8.423-14.9-12.372-5.807-20.956,3.535-32.822s14.139-29.792,12.624-49.226,16.916-28.79,29.54-18.943l45.194-7.321s13.634,32.064,17.673,52.27S410.241,1242.822,389.762,1253.679Z" transform="translate(-45.541 -4.917)" fill="#823315"/>
          <path id="Trazado_116807" data-name="Trazado 116807" d="M369.284,1307.35a27.2,27.2,0,0,0-8.746.912,116.319,116.319,0,0,1-31.532,4.1c10.219-18.508,14.616-44.373,14.616-44.373s20.2,10.2,23.48,14.9C369.634,1286.506,369.164,1297.756,369.284,1307.35Z" transform="translate(-74.107 -56.94)" fill="#632411"/>
          <path id="Trazado_116808" data-name="Trazado 116808" d="M390.282,1290.527v43.205s-1.955,12-15.491,11.075a16.2,16.2,0,0,1-15.382-13.229v-41.052Z" transform="translate(-86.823 -66.368)" fill="#ffaf82"/>
          <path id="Trazado_116809" data-name="Trazado 116809" d="M390.282,1290.527v40.083c-18.5-.782-26.381-16.08-30.873-30.533v-9.55Z" transform="translate(-86.823 -66.368)" fill="#fe976a"/>
          <path id="Trazado_116810" data-name="Trazado 116810" d="M390.008,1253.246c-31.026,0-45.832-18.634-47.7-44.352a99.41,99.41,0,0,1,3.009-30.634c9.846-40.144,65.9-18.178,65.9-18.178a87.235,87.235,0,0,1,8.522,23.333C426.59,1213.705,422.676,1253.246,390.008,1253.246Z" transform="translate(-79.585 -9.302)" fill="#ffaf82"/>
          <path id="Trazado_116811" data-name="Trazado 116811" d="M405.6,1294.695c-6.362,0-10.7-6.053-10.754-6.132a1.052,1.052,0,0,1,1.721-1.209h0c.247.349,6.112,8.481,13.865,3.763a1.052,1.052,0,1,1,1.094,1.8A11.27,11.27,0,0,1,405.6,1294.695Z" transform="translate(-101.566 -64.854)" fill="#6a2810"/>
          <path id="Trazado_116812" data-name="Trazado 116812" d="M385.735,1263.765a6.636,6.636,0,0,1-3.065-.779,4.944,4.944,0,0,1-2.86-4.264,5.6,5.6,0,0,1,2.4-4.813,3.012,3.012,0,0,1,3.083-.19,1.052,1.052,0,1,1-.989,1.857.887.887,0,0,0-.974.115,3.506,3.506,0,0,0-1.422,2.945,2.851,2.851,0,0,0,1.727,2.484,3.977,3.977,0,0,0,4.923-.682,6.037,6.037,0,0,0,.725-7.149,5.548,5.548,0,0,0-5.363-3.256,5.187,5.187,0,0,0-4.518,3.436,1.052,1.052,0,1,1-1.985-.7,7.291,7.291,0,0,1,6.345-4.838,7.654,7.654,0,0,1,7.379,4.369,8.128,8.128,0,0,1-1.09,9.616A6.033,6.033,0,0,1,385.735,1263.765Z" transform="translate(-94.332 -48.545)" fill="#fe976a"/>
          <path id="Trazado_116813" data-name="Trazado 116813" d="M463.225,1252.53a6.636,6.636,0,0,1-3.065-.778,4.944,4.944,0,0,1-2.86-4.265,5.6,5.6,0,0,1,2.405-4.813,3.014,3.014,0,0,1,3.083-.19,1.052,1.052,0,0,1-.99,1.858.885.885,0,0,0-.974.114,3.506,3.506,0,0,0-1.422,2.946,2.851,2.851,0,0,0,1.727,2.484,3.984,3.984,0,0,0,4.924-.681,6.039,6.039,0,0,0,.725-7.15,5.53,5.53,0,0,0-5.363-3.255,5.186,5.186,0,0,0-4.518,3.435,1.052,1.052,0,1,1-1.985-.7,7.289,7.289,0,0,1,6.345-4.837,7.655,7.655,0,0,1,7.38,4.368,8.128,8.128,0,0,1-1.09,9.616A6.028,6.028,0,0,1,463.225,1252.53Z" transform="translate(-126.741 -43.847)" fill="#fe976a"/>
          <path id="Trazado_116814" data-name="Trazado 116814" d="M434.591,1253.362a1.052,1.052,0,0,1-.6-1.919l8.313-5.723-8.583-12.431a1.052,1.052,0,0,1,1.732-1.195l9.181,13.3a1.051,1.051,0,0,1-.269,1.464l-9.181,6.321A1.055,1.055,0,0,1,434.591,1253.362Z" transform="translate(-117.826 -41.739)" fill="#6a2810"/>
          <path id="Trazado_116815" data-name="Trazado 116815" d="M395.21,1226.559c0,2.829-1.138,4.421-2.542,4.421s-2.542-1.592-2.542-4.421,1.139-4.346,2.542-4.346S395.21,1223.73,395.21,1226.559Z" transform="translate(-99.67 -37.797)" fill="#6a2810"/>
          <path id="Trazado_116816" data-name="Trazado 116816" d="M419.738,1183.415a6.662,6.662,0,0,1-1,.785c-19.805,12.645-55.77,6.032-55.77,6.032.687-23.733-12.315-22.646-10.527-14.349,1.746,8.115,2.251,38-10.127,33.012a99.41,99.41,0,0,1,3.009-30.634c9.846-40.144,65.9-18.178,65.9-18.178A87.235,87.235,0,0,1,419.738,1183.415Z" transform="translate(-79.585 -9.302)" fill="#fe976a"/>
          <path id="Trazado_116817" data-name="Trazado 116817" d="M416.153,1172.792c8.97-5.73,5.48-34.363-23.085-39.918S345.062,1146,345.062,1146s-19.426,44.387-6.178,51.1,12.763-24.335,10.975-32.632,11.211-9.382,10.529,14.351C360.388,1178.825,396.352,1185.442,416.153,1172.792Z" transform="translate(-76.304)" fill="#823315"/>
          <path id="Trazado_116818" data-name="Trazado 116818" d="M274.885,1471.789a74.162,74.162,0,0,1-16.327,3.6c-27.906,2.812-43.595-13.36-43.595-13.36s15.149-64.971,22.555-77.09,25.718-14.237,25.718-14.237l3.388-.8c.785,12.834,2.09,38.966.855,53.076C265.8,1442.165,274.885,1471.789,274.885,1471.789Z" transform="translate(-26.41 -99.565)" fill="#39ad98"/>
          <path id="Trazado_116819" data-name="Trazado 116819" d="M311.732,1510.243a1.052,1.052,0,0,1-1.005-.744c-.374-1.217-9.13-30.04-7.448-49.212a1.052,1.052,0,1,1,2.1.183c-1.646,18.766,7.273,48.118,7.363,48.412a1.051,1.051,0,0,1-1.006,1.361Z" transform="translate(-63.257 -136.967)" fill="#6a2810"/>
          <path id="Trazado_116820" data-name="Trazado 116820" d="M454.288,1219.024c0,2.829-1.138,4.421-2.542,4.421s-2.542-1.592-2.542-4.421,1.138-4.346,2.542-4.346S454.288,1216.2,454.288,1219.024Z" transform="translate(-124.379 -34.645)" fill="#6a2810"/>
          <path id="Trazado_116821" data-name="Trazado 116821" d="M338.178,1263.966c-4.336,13.38-28.1,9.479-29.538-5.543-1.392-14.572,15.2-20.792,26.09-11.2S338.178,1263.966,338.178,1263.966Z" transform="translate(-65.555 -46.333)" fill="#ffaf82"/>
          <path id="Trazado_116822" data-name="Trazado 116822" d="M326.959,1268.046a1.051,1.051,0,0,1-.846-1.676c.043-.058,4.289-5.936,2-10.336a1.052,1.052,0,1,1,1.867-.972c2.9,5.567-1.963,12.272-2.172,12.554A1.049,1.049,0,0,1,326.959,1268.046Z" transform="translate(-72.811 -51.299)" fill="#fe976a"/>
          <path id="Trazado_116823" data-name="Trazado 116823" d="M335.634,1267.037a14.266,14.266,0,0,1-4.532-.656,1.052,1.052,0,1,1,.678-1.991c3.606,1.228,8.7-.013,8.75-.025a1.052,1.052,0,0,1,.51,2.041A24.609,24.609,0,0,1,335.634,1267.037Z" transform="translate(-74.685 -55.413)" fill="#fe976a"/>
        </g>
      </g>
    </g>
  </g>
</svg>
