<?xml version="1.0" encoding="UTF-8"?><svg id="Capa_2" xmlns="http://www.w3.org/2000/svg" xmlns:xlink="http://www.w3.org/1999/xlink" viewBox="0 0 252.23 252.23"><defs><style>.cls-1{fill:#feaa8c;}.cls-2{fill:#fff;}.cls-3{fill:#4d2902;}.cls-4{fill:#71350a;}.cls-5{fill:#fbd2d0;}.cls-6{fill:#bc7950;}.cls-7{fill:#714837;}.cls-8{fill:#6d677f;}.cls-9{fill:#f5949b;}.cls-10{fill:#425d73;}.cls-11{fill:#403e59;}.cls-12{fill:#596b80;}.cls-13{fill:#9ca1af;}.cls-14{fill:#b23c53;}.cls-15{fill:#cf8558;}.cls-16{fill:#f27584;}.cls-17{fill:#5c2f1c;}.cls-18{fill:#5c301d;}.cls-19{fill:#ffca9f;}.cls-20{fill:#464461;}.cls-21{fill:#d24862;}.cls-22{fill:#2f0b00;}.cls-23{fill:#f7a9ac;}.cls-24{fill:#324851;}.cls-25{fill:#f89a64;}.cls-26{clip-path:url(#clippath);}.cls-27{fill:none;}.cls-28{fill:#572917;}.cls-29{fill:#864116;}.cls-30{fill:#4e230c;}.cls-31{fill:#3d566a;}.cls-32{fill:#344b5e;}.cls-33{fill:#f9a877;}.cls-34{fill:#b5581e;}.cls-35{fill:#9cb6ff;}</style><clipPath id="clippath"><path class="cls-27" d="M252.23,126.12c0,69.65-56.46,126.12-126.12,126.12S0,195.77,0,126.12,56.46,0,126.12,0s126.12,56.46,126.12,126.12Z"/></clipPath></defs><g id="layer_1"><g class="cls-26"><path class="cls-35" d="M252.23,126.12c0,69.65-56.46,126.12-126.12,126.12S0,195.77,0,126.12,56.46,0,126.12,0s126.12,56.46,126.12,126.12Z"/><path class="cls-27" d="M252.23,126.12c0,69.65-56.46,126.12-126.12,126.12S0,195.77,0,126.12,56.46,0,126.12,0s126.12,56.46,126.12,126.12Z"/><g><path class="cls-21" d="M124.52,113.16c-.45,.06-.9,.09-1.35,.09-.85,0-1.69-.08-2.54-.09h-.1c.09,8.03-.91,16.12-2.11,24.24,1.23,4.56,2.44,8.82,3.53,12.6,.17-.84,.39-1.93,.64-3.22,.88-4.5,2.23-11.48,3.63-18.97-.87-6.26-1.48-11.55-1.57-14.68-.04,.01-.09,.03-.13,.03Z"/><path class="cls-4" d="M63.45,250.51c0-2.12,.34-9.58,3.3-10.78-.97-1.54-1.18-3.4-.94-5.37-4.8,1.17-8.03,7.09-6.38,16.53h4.02v-.38Z"/><path class="cls-30" d="M101.21,18.69c-.43,.56-.79,1.08-1.1,1.58,3.65,2.32,8.39,3.32,12.08,5.63-.51-2.24-2-4.48-3.24-6.23,6.98,3.74,16.19,4.49,23.92,5.74,.72,.09,1.43,.15,2.16,.19,.02,.02,.04,.02,.06,0,.7-.01,1.39-.03,2.09,.02,.04,0,.09,.01,.12,.04,5.37-.01,10.51-1.02,15.89-1.39-1.21-4.68-4.1-8.74-9.48-11.4-10.5-5.37-23.94-4.46-35.54-.69-.08-.01-.17-.01-.24-.03-2.36,1.93-4.93,4.15-6.71,6.53Zm20.6-4.11c1.63-.46,3.43-.39,5.11-.67,1.33-.24,2.71-.61,4.07-.48,.37,.03,.45,.51,.09,.66-1.63,.61-3.57,.82-5.31,1.01-1.39,.15-2.72,.32-3.99-.31-.09-.05-.06-.18,.03-.21Zm-11.93,1.41c5.11,.57,10.09,2.05,15.25,2.29,5.28,.26,10.2-.9,15.4-1.15,.55-.02,.75,.77,.27,1.04-4.18,2.31-9.84,1.94-14.41,1.23-5.55-.88-11.11-1.91-16.52-3.36-.01-.02-.01-.06,.02-.05Z"/><path class="cls-31" d="M123.13,233.77c.05,.83,.08,1.68,.14,2.5,.4-.52,.82-1.09,1.28-1.63,.75-.9,1.59-1.75,2.54-2.26,.73-.37,.27-2.78,.22-3.74-.06-2-.13-3.99-.21-5.99-1.19-1.99-2.11-4.25-2.85-6.25-.14-.33-.26-.66-.37-.98,.01,2.02,.03,4.04,.03,6.08,0,0-.01,.01,0,.03v.72c-.08,.96-.49,1.79-1.21,2.51,.01,.55,.05,1.12,.07,1.67,.12,2.45,.24,4.89,.36,7.34Z"/><path class="cls-9" d="M129.62,105.9c-.76-.7-1.55-1.52-2.34-2.43l-.21,.2c-1.2,2.77-2.25,6.3-2.54,9.49,.04,0,.09-.02,.13-.03,.09,3.13,.7,8.42,1.57,14.68,1.44-7.67,2.93-15.89,4.05-22.53-.14,.21-.27,.42-.41,.62h-.25Z"/><path class="cls-17" d="M137.23,26.17c-2.5,.75-5.83,.34-8.33-.32-.16-.03-.12-.27,.05-.28,1.47-.17,2.94,.04,4.41,.08,.55,.01,1.11,0,1.66-.03-.72-.04-1.44-.1-2.16-.19-7.73-1.26-16.94-2-23.92-5.74,1.24,1.75,2.74,3.99,3.24,6.23-3.69-2.32-8.43-3.31-12.08-5.63-3.14,5.16,.06,7.43,3.8,11.54,7.29,4.62,18.03,8.77,25.22,8.22-3.36-3.08-6.36-6.86-10.84-8.92,8.4,3.69,19.21,2.69,28.35,4.19,2.24,.13,4.45,.25,6.8,.3,.64-3.87,.67-7.78-.26-11.32-5.38,.37-10.53,1.38-15.89,1.39,.19,.1,.21,.42-.06,.49Zm-16.12,8.15c.33,.15,.27,.73-.09,.79-7.23,1.03-15.3-4.41-19.14-10.24-.12-.16,.12-.31,.27-.19,3.05,2.5,5.73,4.56,9.37,6.16,3.12,1.38,6.49,2.08,9.58,3.49Zm27.35-4.22c.29,.04,.29,.52,0,.58-11.11,1.94-26.03,2.62-34.3-6.44-.01-.01,.01-.04,.03-.03,9.24,8.53,23.13,4.08,34.27,5.89Z"/><path class="cls-34" d="M36.35,284.44c1.32,4.11,6.91,4.11,11.03,4.86,.67,.13,1.36,.25,2.05,.36v-4.01h8.97v5.22c7.38,.7,14.89,.73,22.23,.1,1.08-.07,2.29-.13,3.56-.19v-4.65h8.97v3.79c.6-.08,1.17-.21,1.72-.33,1.36-.31,2.62-.7,3.69-1.23,.72-.33,1.39-.96,2-1.75,1.23-1.54,2.21-3.73,2.74-5.73-.34-14.65,.87-28.54,8.02-30H39.75c-4.25,1.23-5.44,10.42-5.43,21.41h.72c.75,3.92,0,8.4,1.31,12.14Z"/><path class="cls-9" d="M83.71,209.67c.07,1.25,.15,2.5,.24,3.75h-3.08c.09,1.15,.18,2.3,.24,3.46,1.2,.06,2.32,.1,3.29,.16-.27-2.41-.48-4.87-.61-7.37h-.07Z"/><path class="cls-19" d="M123.02,83.85c5.35-2.12,7.6-5.73,10.46-10.72,4.23-7.22,6.73-14.06,7.6-22.42,.26-1.99,1.5-8.46,.26-9.96-.63-.88-8.22-2.62-9.6-3.87,.87,1.56,2.04,3.29,2.9,5.01,.93,.56,1.52,1.34,2.17,2.51,.01,.03-.02,.06-.05,.03-.39-.46-.88-.79-1.42-1.02,.09,.24,.18,.47,.25,.7-6.22,0-14.81-.75-20.42-3.12-.46-.18-.96-.36-1.45-.54,.28,.23,.55,.52,.79,.88,.08,.1-.01,.28-.15,.27-1.41-.09-2.9-.01-4.29,.12-.78,.07-1.81-.05-2.48,.43-.61,.45-1.09,1-1.63,1.53-.01,0-.03,0-.03-.01,.24-1.48,2.42-3.55,3.89-3.82,.63-.12,1.23-.19,1.79-.15-3.71-1.31-7.78-2.77-11-4.85-.52,9.87-.21,20.38,2.08,29.66,0,.01,0,.03,.01,.05,1.39,5.62,3.5,10.79,6.61,15.08,1.75,2.24,3.52,3.93,5.28,5.11,2.58,1.12,5.54,.25,8.43-.9Zm8.34-35.21c1.51,0,2.74,1.45,2.74,3.24s-1.23,3.25-2.74,3.25-2.74-1.45-2.74-3.25,1.23-3.24,2.74-3.24Zm-4.26,11.66c.69-1.18,2.07-1.53,3.32-1.8,1.27-.27,2.48-.49,3.77-.31,2.12,.31,2.05,3.83,0,4.2-1.12,.21-2.26,.2-3.38,.36-1.27,.17-2.48,.24-3.47-.67-.5-.45-.55-1.23-.24-1.78Zm-11.99-.63c3.59-1.56,4.66-5.5,4.92-9.09,.01-.16,.23-.16,.24,0,.33,3.09-.48,6.16-2.39,8.64-.99,1.27-2.38,1.69-.96,3.59,1.21,1.64,2.8,2.57,4.43,3.71,.15,.09,.06,.3-.12,.27-3.2-.57-6.36-3.08-6.48-6.49,0-.24,.14-.54,.36-.63Zm-4.32,1.71c-1.32,.55-2.86-.24-4.02-.82-1.28-.63-1.63-2.43-.95-3.59,.73-1.23,2.37-1.67,3.6-.94,.96,.57,2.21,1.04,2.69,2.15,.59,1.41,.1,2.61-1.32,3.2Zm-.36-7.31c-1.51,0-2.74-1.45-2.74-3.25s1.23-3.23,2.74-3.23,2.74,1.45,2.74,3.23-1.23,3.25-2.74,3.25Zm5.07,21.01v-.02c-1.36-1.58-2.27-3.61-1.88-5.26,.39,.4,.84,.76,1.35,1.08,2.54,1.61,6.31,2.11,9.15,1.02,.94-.35,1.78-.88,2.45-1.59-.39,1.66-1.03,3.43-2.03,4.8-1.12,1.55-2.66,2.63-4.7,2.57-1.39,0-3.07-1.11-4.34-2.6Z"/><path class="cls-22" d="M105.94,43.66s.01,.01,.03,.01c.54-.52,1.02-1.07,1.63-1.53,.67-.48,1.7-.36,2.48-.43,1.39-.14,2.88-.21,4.29-.12,.14,.02,.23-.16,.15-.27-.24-.36-.51-.66-.79-.88-.6-.49-1.32-.72-2.09-.75,0-.01-.01,0-.01,0-.57-.04-1.17,.03-1.79,.15-1.47,.27-3.65,2.33-3.89,3.82Z"/><path class="cls-12" d="M92.45,237.94c0,.17,0,.34,.01,.53,.09,4.13,.2,8.26,.33,12.41h4.83c-.15-1.77-.28-3.2-.39-4.19-.58-5.97-.67-11.98-.47-18-1.76-.1-3.3-.24-4.48-.39,.04,3.18,.09,6.4,.16,9.63Z"/><path class="cls-19" d="M162.32,195.48c-.88-2.93-2.91-4.94-4.83-6.76l-.03,.03c-2.63,3.68-3.23,8.28-3.08,12.9,0,.36,.02,.74,.05,1.09,.13,.85,.25,1.71,.37,2.58,.15,1.05,.3,2.08,.45,3.13l.48-.08c.15,.93,.37,1.85,.61,2.79,3.36,1.5,7.85,1.5,11.21,.75,5.23-.75,8.6-1.5,9.72-7.1,1.61-7.24-1.78-7.35-4.38-4.23-.9,1.07-1.69,2.53-2.15,4.2-1.3-.04-2.61-.11-3.93-.3-.12-.02-.26-.03-.37-.05-1.05-3.15-1.45-6.29-2.72-9.14-.25,.18-.51,.36-.76,.54l-.63-.38Z"/><path class="cls-33" d="M172.89,200.59c-1.15-3.11-5.77,.37-6.08,3.86v.05c1.32,.18,2.63,.26,3.93,.3,.46-1.67,1.26-3.12,2.15-4.2Z"/><path class="cls-23" d="M162.52,179.49c-.9,1.06-1.76,2.12-2.61,3.17,2.83,2.8,6.01,5.64,7.91,9.32,1-.9,1.99-1.86,2.96-2.84-1.98-3.85-5.34-6.74-8.26-9.65Z"/><path class="cls-32" d="M158.28,272.98c3.36,25.04,2.25,91.2,3.74,98.31l.22,.55c.82-.31,1.65-.66,2.42-1.02,3.71-42.98,.18-88.59-5.55-133.75-.37-2.99-.76-5.99-1.17-8.99-1.63,.43-3.68,.79-5.95,1.05,2.73,16.19,5.34,36.57,6.28,43.85Z"/><path class="cls-5" d="M159.91,182.66c-1.32,1.65-2.56,3.28-3.63,4.89,.39,.39,.79,.78,1.21,1.16,1.91,1.81,3.95,3.83,4.83,6.76l.63,.38c.25-.18,.51-.36,.76-.54,1.42-1,2.78-2.12,4.11-3.33-1.9-3.68-5.08-6.52-7.91-9.32Z"/><path class="cls-31" d="M162.02,371.29c-1.49-7.1-.38-73.26-3.74-98.31-.94-7.28-3.54-27.66-6.28-43.85-7.36,.82-16.88,.49-20.59-1.89-1.36-.73-2.51-1.92-3.5-3.32,.1,2.82,.2,5.66,.28,8.49,0,.12-.07,.27-.19,.33-1.33,.71-2.45,1.85-3.44,3.05v.81c10.12-3.77,18.91,40.05,19.51,42.64,4.86,28.89,6.41,61.94,6.49,92.04h-.13c-.36,1.46-.57,2.72-.67,3.79,3.26-.13,8.06-1.45,12.48-3.24l-.22-.55Z"/><path class="cls-32" d="M155.26,211.31c.3,1.42,.61,2.83,.96,4.23,.02,.11,.05,.21,.08,.32-.21-1.53-.43-3.04-.64-4.56h-.39Z"/><path class="cls-20" d="M139.91,108.57c-.48,2.5-1.11,4.6-1.88,5.55-1.49,1.75-3.49,1.75-4.49,4.25-1,2.24-.25,5.23,0,7.47,.67,6.82-1.43,14.31-4.34,21.19-1.43,3.44-3.07,6.71-4.64,9.7-.25,.51-.75,1.26-1,2h-.33c0,.36,0,.7,.02,1.05,.06,9.1,.19,18.21,.33,27.3v.12c.08,5.5,.15,10.99,.21,16.49v.15c.04,3.07,.06,6.14,.09,9.22v2.36c.12,.32,.24,.65,.37,.98,.75,2,1.66,4.26,2.85,6.25,.25,.45,.52,.87,.81,1.29,.99,1.4,2.14,2.59,3.5,3.32,3.71,2.38,13.23,2.7,20.59,1.89,2.27-.26,4.32-.62,5.95-1.05-.54-4.08-1.09-8.16-1.66-12.23-.03-.11-.06-.21-.08-.32-.34-1.4-.66-2.81-.96-4.23h.39c-.14-.95-.27-1.92-.41-2.86-.15-1.05-.3-2.08-.45-3.13h-.18c-.09-.85-.15-1.71-.19-2.58-.05-.37-.1-.75-.16-1.12-.25-1.83-.52-3.63-.79-5.46-.16-8.2-.69-22.61-2.23-38.16h.17c-.97-10.64-.15-22.74-.12-33.46,0-1.44-.01-2.83-.04-4.2,1.23,.7,2.48,1.47,3.74,2.29,9.86,6.37,19.87,15.67,22.41,23.38,4.01,12.11-6.14,23.05-14.86,33.48,2.92,2.9,6.28,5.8,8.26,9.65,7.36-7.6,13.6-17.48,19.57-25.69,5.49-7.97,4.98-14.96,1-23.93-7.32-17.21-30.05-31.64-50.33-41.19-.04,1.28-.15,2.79-.3,4.36-.19,1.96-.46,4.02-.82,5.86Zm13.65,92.85c-5.4-1.61-9.58-3.76-8.06-10.3,2.33,1.39,5.08,1.7,7.27,3.56,.22,2.26,.48,4.52,.79,6.74Z"/><path class="cls-16" d="M154.62,205.33h.18c-.12-.87-.24-1.73-.37-2.58,.04,.87,.1,1.73,.19,2.58Z"/><path class="cls-8" d="M153.56,201.41c-.31-2.22-.57-4.48-.79-6.74-2.18-1.85-4.94-2.17-7.27-3.56-1.52,6.54,2.66,8.69,8.06,10.3Z"/><path class="cls-33" d="M127.24,85.44c5.89-3.25,11.08-11.12,14.7-20.56,5.17,.18,8.93-1.03,9.99-6.24,.33-2.76,.08-7.18-2.92-8.33-.6,1.51-1.23,2.99-1.89,4.43,1.65,.47,2.42,2.6,1.69,4.19-.88,1.87-2.93,2.09-4.68,1.67-.51,.94-1.06,1.87-1.66,2.79,.35-.97,.69-1.96,1.01-2.96,2.59-8.18,4.01-17.1,3.76-25.02-.19-.03-.41-.07-.61-.12-9.14-1.5-19.95-.49-28.35-4.19,4.49,2.06,7.48,5.85,10.84,8.92-7.19,.55-17.93-3.6-25.22-8.22-1.05-.66-2.03-1.33-2.92-2l-.06,.08c-.13,1.63-.24,3.27-.31,4.95,3.23,2.09,7.29,3.54,11,4.85,0,0,.01-.01,.01,0,.78,.03,1.5,.26,2.09,.75,.49,.18,.99,.36,1.45,.54,5.61,2.38,14.21,3.12,20.42,3.12-.08-.24-.16-.46-.25-.7-1.21-.49-2.68-.49-3.93-.46-1.16,.01-2.6,.37-3.56-.44-.21-.18-.18-.51,0-.69,.33-.36,.87-.6,1.46-.72,1.23-.25,2.77-.1,3.68,.12,.66,.18,1.19,.39,1.64,.66-.86-1.72-2.03-3.45-2.9-5.01,1.38,1.26,8.97,2.99,9.6,3.87,1.24,1.5,0,7.97-.26,9.96-.87,8.36-3.36,15.2-7.6,22.42-2.87,4.99-5.11,8.6-10.46,10.72-2.89,1.15-5.85,2.02-8.43,.9,.66,.45,1.3,.82,1.96,1.13,1.65,.8,3.29,1.14,4.89,1.14,2,0,3.93-.56,5.8-1.59Z"/><path class="cls-22" d="M147.25,35.42c.25,7.91-1.17,16.84-3.76,25.02,.21,.08,.42,.13,.65,.16,1.12-1.93,2.09-3.87,2.99-5.86,.66-1.43,1.29-2.91,1.89-4.43,.61-1.55,1.2-3.12,1.79-4.75l-.19-.08c1.24-3.13,2.26-6.49,2.83-9.88-2.35-.04-4.56-.16-6.8-.3,.21,.05,.42,.09,.61,.12Zm2.56,1.06c.09-.34,.57-.18,.51,.15-.52,3.69-.34,8.22-1.9,11.65-.09,.22-.42,.13-.48-.07-1.14-3.66,.9-8.23,1.87-11.73Z"/><path class="cls-28" d="M148.41,48.28c1.56-3.43,1.37-7.95,1.9-11.65,.06-.33-.42-.49-.51-.15-.97,3.5-3.01,8.08-1.87,11.73,.06,.2,.39,.29,.48,.07Z"/><path class="cls-6" d="M148.82,58.93c.73-1.59-.05-3.72-1.69-4.19-.9,1.99-1.87,3.93-2.99,5.86,1.75,.42,3.8,.19,4.68-1.67Z"/><path class="cls-7" d="M114.19,24.21s-.04,.01-.03,.03c8.27,9.06,23.19,8.39,34.3,6.44,.29-.06,.29-.54,0-.58-11.14-1.81-25.03,2.65-34.27-5.89Z"/><path class="cls-30" d="M142.48,63.4c.6-.93,1.15-1.85,1.66-2.79-.23-.03-.44-.09-.65-.16-.32,1-.67,1.99-1.01,2.96Z"/><path class="cls-18" d="M126.39,19.4c4.58,.72,10.23,1.08,14.41-1.23,.48-.27,.28-1.06-.27-1.04-5.2,.25-10.12,1.4-15.4,1.15-5.16-.24-10.14-1.72-15.25-2.29-.03-.02-.03,.03-.02,.05,5.41,1.45,10.97,2.48,16.52,3.36Z"/><path class="cls-7" d="M128.95,25.57c-.17,.01-.21,.25-.05,.28,2.5,.66,5.83,1.06,8.33,.32,.27-.08,.25-.39,.06-.49-.03-.03-.08-.04-.12-.04-.7-.05-1.39-.03-2.09-.02-.01,.02-.04,.02-.06,0-.56,.03-1.11,.05-1.66,.03-1.47-.03-2.94-.24-4.41-.08Z"/><path class="cls-22" d="M136.81,44.4c-.65-1.17-1.24-1.96-2.17-2.51-.45-.27-.99-.48-1.64-.66-.91-.23-2.45-.37-3.68-.12-.6,.12-1.14,.36-1.46,.72-.18,.18-.21,.51,0,.69,.95,.81,2.39,.45,3.56,.44,1.26-.03,2.72-.03,3.93,.46,.54,.23,1.03,.55,1.42,1.02,.03,.03,.06,0,.05-.03Z"/><path class="cls-1" d="M130.81,62.76c1.12-.17,2.26-.15,3.38-.36,2.05-.37,2.12-3.89,0-4.2-1.28-.18-2.49,.04-3.77,.31-1.26,.27-2.63,.61-3.32,1.8-.31,.55-.25,1.33,.24,1.78,.99,.91,2.2,.85,3.47,.67Z"/><path class="cls-24" d="M131.37,55.13c1.51,0,2.74-1.45,2.74-3.25s-1.23-3.24-2.74-3.24-2.74,1.45-2.74,3.24,1.23,3.25,2.74,3.25Z"/><path class="cls-18" d="M125.77,15.1c1.74-.19,3.68-.4,5.31-1.01,.36-.15,.28-.63-.09-.66-1.36-.14-2.74,.24-4.07,.48-1.69,.28-3.48,.21-5.11,.67-.09,.03-.12,.16-.03,.21,1.27,.63,2.6,.46,3.99,.31Z"/><path class="cls-13" d="M127.31,228.64c.05,.96,.51,3.36-.22,3.74-.96,.51-1.79,1.36-2.54,2.26-.46,.54-.88,1.11-1.28,1.63-.06-.82-.09-1.67-.14-2.5-.12-2.45-.24-4.89-.36-7.34-.03-.55-.06-1.12-.07-1.67-.21,.21-.45,.4-.7,.6,.16,3.98,.32,7.95,.6,11.93,.01,.39,.46,.49,.69,.19,.41-.55,.84-1.12,1.28-1.67,.99-1.21,2.11-2.35,3.44-3.05,.12-.05,.19-.21,.19-.33-.09-2.82-.18-5.67-.28-8.49-.28-.42-.55-.84-.81-1.29,.07,2,.15,3.99,.21,5.99Z"/><path class="cls-14" d="M120.63,113.16c.85,.01,1.69,.09,2.54,.09,.45,0,.9-.03,1.35-.09,.3-3.19,1.34-6.73,2.54-9.49l.21-.2c-2.51-2.87-4.92-6.53-5.87-9.78l-.57-.07c-.4,3.08-2.38,6.54-4.32,9.55,1.38,3.16,2.83,6.44,4.02,9.72,.04,.09,.08,.17,.1,.27Z"/><path class="cls-3" d="M123.4,73.5c-1.11,.65-2.38,.81-3.6,.81h0c1.13,.04,3.33,.15,4.63-.68,.06,.51,.1,1.02,.1,1.47,1-1.37,1.65-3.14,2.03-4.8-.67,.7-1.51,1.24-2.45,1.59,.08,.3,.14,.65,.21,1-.31,.21-.63,.43-.93,.61Z"/><path class="cls-10" d="M123.28,237.48c-.23,.3-.67,.19-.69-.19-.28-3.98-.43-7.95-.6-11.93-4.75,3.54-17.24,3.81-25.22,3.35-.21,6.03-.12,12.04,.47,18,.1,.99,.24,2.42,.39,4.19h13.71c.33-.08,.67-.12,1.03-.14l.03-.34c.75,.37,1.42,1,2.02,1.82,.97,1.33,1.75,3.2,2.38,5.47,1.26-10.52,3.47-18.1,6.9-20.45l-.09-.14c.33-.23,.66-.39,.99-.51v-.81c-.46,.55-.89,1.12-1.3,1.67Z"/><path class="cls-2" d="M124.53,75.1c0-.45-.04-.96-.1-1.47-1.3,.82-3.5,.72-4.63,.69h0c1.22-.01,2.49-.18,3.6-.82,.3-.18,.61-.4,.93-.61-.07-.36-.14-.7-.21-1-2.84,1.09-6.61,.6-9.15-1.02-.06,.5-.09,1.15-.06,1.8,.14,.13,.28,.26,.43,.39,.39,.25,.78,.51,1.2,.67,.63,.27,1.36,.4,2.03,.52h0c-.86-.05-1.69-.13-2.53-.45-.35-.14-.75-.35-1.09-.61,.07,.79,.25,1.5,.55,1.87v.02c1.27,1.49,2.94,2.6,4.34,2.6,2.03,.06,3.57-1.02,4.7-2.57Z"/><path class="cls-25" d="M120.89,93.03c.52,0,1.06-.03,1.58-.09,1.44-.15,2.87-.49,4.21-.85,.17-.04,.33-.1,.49-.15-.06-2.21,.03-4.4,.06-6.5-1.87,1.03-3.8,1.59-5.8,1.59-1.6,0-3.24-.34-4.89-1.14,.21,2.07,.24,4.16,.24,6.16,1.23,.7,2.62,.96,4.05,.99h.05Z"/><path class="cls-15" d="M121.23,66.79c.18,.03,.27-.18,.12-.27-1.63-1.14-3.21-2.07-4.43-3.71-1.42-1.9-.03-2.32,.96-3.59,1.92-2.49,2.72-5.55,2.39-8.64-.01-.16-.23-.16-.24,0-.25,3.59-1.33,7.53-4.92,9.09-.22,.09-.36,.39-.36,.63,.12,3.41,3.28,5.92,6.48,6.49Z"/><path class="cls-7" d="M102.15,24.67c-.15-.12-.39,.03-.27,.19,3.84,5.83,11.9,11.28,19.14,10.24,.36-.06,.42-.64,.09-.79-3.1-1.41-6.46-2.11-9.58-3.49-3.65-1.6-6.33-3.66-9.37-6.16Z"/><path class="cls-23" d="M120.53,112.89c-1.2-3.27-2.65-6.56-4.02-9.72-.82,1.26-1.63,2.42-2.33,3.48-2.15-2.01-4.02-4.2-5.2-6.76,2.66,11.71,6.19,25.55,9.45,37.5,1.19-8.12,2.2-16.21,2.11-24.24,.01-.1,.01-.18,0-.27Z"/><path class="cls-3" d="M116.04,73.8c.84,.32,1.67,.4,2.53,.46h0c-.67-.13-1.41-.27-2.03-.53-.42-.17-.81-.42-1.2-.67-.15-.12-.3-.26-.43-.39-.03-.65,0-1.29,.06-1.8-.51-.31-.96-.67-1.35-1.08-.39,1.65,.52,3.68,1.88,5.26-.3-.37-.48-1.08-.55-1.87,.34,.27,.75,.48,1.09,.61Z"/><path class="cls-8" d="M107.87,115.11c1.26,2.74,0,4.74-.75,7.22-2.21,8.67,3.72,19.47,9.39,27.75,1.33,1.96,2.65,3.78,3.83,5.4,.96,1.19,2.36,2.61,2.92,4.29-.02-.35-.02-.69-.02-1.05h.33c.25-.75,.75-1.49,1-2,1.57-2.99,3.2-6.26,4.64-9.7,2.9-6.88,5.01-14.37,4.34-21.19-.25-2.25-1-5.23,0-7.47,1-2.5,2.99-2.5,4.49-4.25,.78-.94,1.4-3.05,1.88-5.55,.36-1.84,.63-3.9,.82-5.86,.15-1.57,.25-3.08,.3-4.36-3.11-1.47-6.16-2.81-9.07-4.04-.01,.04-.01,.1-.01,.15-.28,2.39-.88,6.24-1.66,10.83-1.12,6.64-2.62,14.86-4.05,22.53-1.41,7.49-2.75,14.47-3.63,18.97-.26,1.29-.48,2.38-.64,3.22-1.09-3.78-2.3-8.04-3.53-12.6-3.26-11.95-6.79-25.79-9.45-37.5-.01-.02-.01-.03-.01-.05-.42-.94-.76-1.93-.97-2.98-.01-.09-.05-.19-.06-.3-.63,.54-1.23,1.11-1.76,1.72-.18,.18-.34,.36-.51,.55l-.09-.07-.09-.08c-.23,.21-.44,.42-.66,.64-.01,.02-.01,.03-.03,.03-1.06,1.01-2.09,2.08-3.08,3.17,.27,3.36,.76,7.27,1.93,9.1,1.24,1.73,3.24,1.49,4.23,3.48Z"/><path class="cls-4" d="M106.05,272.85c0,3.92,.19,7.47-1.68,11.21-.28,.69-.58,1.27-.9,1.77,.45,10.68,1.47,21.05,1.35,26.62,.94-.06,1.81-.12,2.6-.18h.06c2.83,0,5.89-.03,8.76-.35,.61-.06,1.21-.15,1.8-.24h.52c0-9.43,2.19-39.61-1.78-53.98-.63-2.27-1.4-4.14-2.38-5.47-6.17-1.48-8.36,17.11-8.36,20.62Z"/><path class="cls-29" d="M103.32,280.89c-.52,2.01-1.51,4.19-2.74,5.73-.61,.79-1.28,1.42-2,1.75-1.08,.52-2.34,.91-3.69,1.23h0c2.29-.54,4.23-.66,5.86-1.39,1.05-.46,1.94-1.17,2.74-2.38,.32-.5,.61-1.08,.9-1.77,1.87-3.74,1.68-7.3,1.68-11.21,0-3.52,2.18-22.1,8.36-20.62-.6-.82-1.27-1.45-2.02-1.82l-.03,.34c-.35,.01-.7,.06-1.03,.14-7.15,1.46-8.36,15.35-8.02,30Z"/><path class="cls-24" d="M110.44,47.59c-1.51,0-2.74,1.45-2.74,3.23s1.23,3.25,2.74,3.25,2.74-1.45,2.74-3.25-1.23-3.23-2.74-3.23Z"/><path class="cls-1" d="M109.42,56.03c-1.23-.73-2.87-.29-3.6,.94-.67,1.16-.33,2.96,.95,3.59,1.17,.58,2.71,1.38,4.02,.82,1.42-.58,1.91-1.79,1.32-3.2-.48-1.11-1.74-1.59-2.69-2.15Z"/><path class="cls-5" d="M108.96,99.85s0,.03,.01,.05c1.18,2.56,3.05,4.75,5.2,6.76,.7-1.06,1.51-2.23,2.33-3.48,1.94-3.02,3.92-6.48,4.32-9.55l.57,.07c.95,3.25,3.37,6.91,5.87,9.78,.79,.91,1.59,1.74,2.34,2.43h.25c.14-.21,.27-.42,.41-.62,.78-4.59,1.38-8.44,1.66-10.83-1.48-1.12-3.05-1.88-4.74-2.26-.17-.06-.34-.08-.51-.11-1.34,.36-2.78,.7-4.21,.85-.52,.06-1.06,.09-1.58,.09h-.05c-1.43-.03-2.83-.29-4.05-.99-2.09,.5-3.99,1.26-5.71,2.27-1.05,.6-2.02,1.28-2.91,2.05-.09,.08-.17,.13-.24,.21,.01,.1,.05,.21,.06,.3,.21,1.05,.55,2.04,.97,2.98Z"/><path class="cls-22" d="M100.61,34.84c.07-1.68,.18-3.32,.31-4.95l.06-.08c.88,.67,1.87,1.34,2.92,2-3.74-4.11-6.94-6.39-3.8-11.54,.31-.5,.67-1.03,1.1-1.58,1.78-2.38,4.35-4.61,6.71-6.53-7.58,2.17-10.66,3.45-13.31,11.38-.88,2.62-.39,12.38,1.78,20.2-.09,1.24-.09,2.54,0,3.87,.12,1.89,.4,3.83,.87,5.74,.54,2.33,1.34,4.6,2.38,6.64,.85,1.69,1.85,3.23,3.02,4.52h.03c-2.29-9.29-2.6-19.8-2.08-29.66Zm-2.56-.51c-2.21-3.56-3.35-12.23,.96-14.74,.04-.03,.07,.01,.06,.04-1.37,2.7-2.26,5.13-1.85,8.21,.3,2.15,1.08,4.2,1.33,6.35,.03,.27-.36,.33-.49,.14Z"/><path class="cls-33" d="M95.74,56.45c0-1.32,.61-2.45,1.52-3.09-.46-1.92-.75-3.86-.87-5.74l-.54,.03c-4.81,6.12-3.75,16.99,6.8,16.87-1.17-1.29-2.17-2.83-3.02-4.52-1.94-.34-3.82-1.26-3.9-3.54Z"/><path class="cls-8" d="M98.4,199.09c2.74-2.5,1.24-3.5,1.5-7.24-2.2,1.65-6.53,3.48-9.1,4.83-.03,1.94-.19,4.05-.2,6.02,2.2-.76,6.37-2.37,7.81-3.61Z"/><path class="cls-28" d="M99.07,19.64s-.01-.08-.06-.04c-4.31,2.51-3.17,11.18-.96,14.74,.13,.19,.52,.13,.49-.14-.25-2.15-1.03-4.2-1.33-6.35-.4-3.08,.48-5.5,1.85-8.21Z"/><path class="cls-6" d="M95.74,56.45c.09,2.29,1.96,3.2,3.9,3.54-1.03-2.04-1.84-4.31-2.38-6.64-.91,.64-1.52,1.78-1.52,3.09Z"/><path class="cls-11" d="M83.94,213.42c-.09-1.25-.16-2.5-.24-3.75h.07c-1.12-20.47,2.41-43.4,9.46-63.66-1.16,11.83-.28,25.01-1.45,36.39-.58,4.83-.91,9.7-1.08,14.59,.54-.3,1.09-.59,1.66-.88,2.57-1.35,5.32-2.6,7.52-4.24-.26,3.73,1.24,4.74-1.5,7.24-1.44,1.24-3.9,2.12-6.1,2.88-.61,.21-1.2,.41-1.74,.62-.13,8.52,.09,17.06,.1,25.48,.42,.07,.96,.16,1.62,.24,1.18,.15,2.72,.28,4.48,.39,7.99,.47,20.47,.19,25.22-3.35,.25-.19,.5-.39,.7-.6,.72-.72,1.14-1.55,1.21-2.51v-.72s0-.03,0-.03c0-2.04-.01-4.05-.03-6.08v-2.36c-.03-3.08-.05-6.15-.09-9.22v-.15c-.06-5.5-.14-10.99-.21-16.49v-.12c-.13-9.09-.27-18.19-.33-27.3-.56-1.68-1.96-3.1-2.92-4.29-1.18-1.61-2.5-3.44-3.83-5.4-5.67-8.28-11.6-19.08-9.39-27.75,.75-2.48,2-4.48,.75-7.22-.99-1.99-2.99-1.75-4.23-3.48-1.16-1.83-1.66-5.73-1.93-9.1-.01-.21-.03-.43-.04-.64-.93,.78-1.69,1.46-2.14,2-5.61,6.73-10.72,13.08-14.83,20.93-8.6,16.07-13.08,35.88-15.7,53.83-1.5,10.84-3.74,23.92-1.87,34.76h16.82Z"/><path class="cls-4" d="M86.92,236.85c-1.52-1.36-3.74-2.17-6.94-2.21-.47,1.2-.7,2.56-.84,3.96,2.45,.25,4.19,2.25,5.25,4.74,.99,2.31,1.38,5.04,1.21,7.17v.38h4.2v-.93c.43-5.29,.25-10.35-2.88-13.11Z"/><path class="cls-19" d="M66.75,239.74c1.56,2.5,5.14,4.14,12.21,3.99,1.61-.03,3.43-.15,5.43-.39-1.06-2.5-2.79-4.5-5.25-4.74,.14-1.4,.37-2.76,.84-3.96,3.2,.04,5.41,.85,6.94,2.21,.27-4.38-1.59-10.24-3.38-13.9-4.65-.09-9.42,.28-14.08,.7-.02-.12-.03-.26-.03-.37-1.05,2.9-3.17,7.19-3.62,11.09-.24,1.98-.03,3.83,.94,5.37Z"/><path class="cls-5" d="M83.54,222.94c.33,0,.65,.02,.99,.02,.25,.03,.49,.03,.73,.05-.34-1.96-.63-3.94-.87-5.98-.97-.06-2.09-.1-3.29-.16-4.25-.27-9.4-.61-12.14-.52,.12,2.33,.25,4.65,.46,6.92,0,.11,.01,.25,.03,.37,4.66-.42,9.43-.79,14.08-.7Zm-1.77-3.49c1.06,0,1.06,1.63,0,1.63s-1.05-1.63,0-1.63Z"/><path class="cls-16" d="M81.77,221.09c1.06,0,1.06-1.63,0-1.63s-1.05,1.63,0,1.63Z"/><path class="cls-23" d="M81.1,216.87c-.06-1.15-.15-2.3-.24-3.46h-12.02c.03,.99,.07,1.96,.12,2.93,2.74-.09,7.89,.25,12.14,.52Z"/></g></g></g></svg>